<svg width="234" height="54" viewBox="0 0 234 54" fill="none" xmlns="http://www.w3.org/2000/svg">
<path d="M27.7784 53.9965H26.276C26.0157 54.0017 25.7605 53.9227 25.4989 53.9538C25.4484 53.946 25.3966 53.9357 25.3461 53.9318C23.7168 53.8165 22.1082 53.5704 20.5204 53.1767C11.7664 51.0074 4.62109 44.533 1.60987 36.037C0.901421 34.036 0.426101 31.9819 0.205925 29.8709C0.160595 29.4331 0.123036 28.9954 0.082886 28.5576C0.103608 28.4631 0.0764102 28.3711 0.0686393 28.2791C0.0518023 28.0603 -0.0220217 27.8479 0.00647161 27.6251V26.33C0.00906191 26.1784 0.0103569 26.0295 0.0427357 25.878C0.0764096 25.7226 0.101018 25.5594 0.082886 25.3975C0.0893618 25.3547 0.0997222 25.3133 0.102312 25.2706C0.146348 24.4158 0.24478 23.5675 0.379476 22.723C0.835369 19.8712 1.69794 17.1475 3.05526 14.5974C6.41488 8.29142 11.4504 3.89963 18.1839 1.48551C20.2976 0.727863 22.4838 0.282339 24.7231 0.103611C25.2386 0.0621666 25.7567 0.0349685 26.2721 0H27.8263C28.3249 0.0349685 28.8249 0.0634605 29.3235 0.102314C31.0396 0.237008 32.7259 0.54784 34.3811 1.01797C42.8721 3.43209 49.6742 9.86888 52.5546 18.2147C53.1957 20.0719 53.627 21.9771 53.8459 23.9301C53.9275 24.6593 53.9819 25.3897 54 26.1228V27.8323C53.9974 27.8582 53.9922 27.8841 53.9909 27.9087C53.965 29.4927 53.7591 31.0559 53.425 32.6023C52.3059 37.7699 49.8983 42.2471 46.1747 46.003C43.2477 48.9546 39.8051 51.1045 35.8821 52.4799C34.0042 53.1379 32.0757 53.5847 30.0954 53.801C29.5812 53.8567 29.0658 53.9046 28.5516 53.9564C28.29 53.924 28.0348 54.0095 27.7745 53.9991L27.7784 53.9965ZM27.0194 39.6724C34.1259 39.6724 41.2311 39.6724 48.3376 39.6724C48.4321 39.6724 48.528 39.675 48.6225 39.6724C48.8842 39.6633 48.9347 39.5792 48.8155 39.3538C48.787 39.3007 48.7546 39.2489 48.7249 39.1971C46.0413 34.5476 43.3565 29.8981 40.6729 25.2485C36.202 17.5037 31.7312 9.76009 27.2603 2.01652C27.0751 1.69662 26.9987 1.69532 26.8161 2.01134C26.2812 2.93865 25.7463 3.86467 25.2114 4.79198C18.5958 16.2513 11.9801 27.7106 5.36451 39.1699C5.31659 39.2515 5.26608 39.3331 5.22593 39.4186C5.15729 39.5649 5.20262 39.6478 5.36581 39.6685C5.45906 39.6802 5.5549 39.675 5.65074 39.675C12.7741 39.675 19.8974 39.675 27.0207 39.675L27.0194 39.6724ZM27.0505 40.7616C19.9194 40.7616 12.7883 40.7616 5.65851 40.7616C5.56396 40.7616 5.46812 40.7564 5.37358 40.7681C5.24277 40.7849 5.19614 40.8691 5.25183 40.9895C5.29069 41.075 5.34897 41.1514 5.40207 41.2317C6.69722 43.1964 8.22291 44.963 10.005 46.5003C14.7466 50.5916 20.2613 52.7053 26.513 52.8892C28.8016 52.9565 31.0642 52.6962 33.2828 52.1264C39.8362 50.4401 44.9806 46.7632 48.7391 41.1385C48.7728 41.088 48.809 41.0388 48.8336 40.9844C48.8816 40.8743 48.844 40.7914 48.7274 40.7733C48.6264 40.7564 48.5215 40.7629 48.4179 40.7629C41.2959 40.7629 34.1738 40.7629 27.0518 40.7629L27.0505 40.7616ZM1.13973 27.0488C1.13455 27.9178 1.19024 28.8555 1.29126 29.7919C1.50496 31.7734 1.9479 33.7032 2.60454 35.5837C2.98661 36.6768 3.44121 37.7388 3.96834 38.7697C4.08749 39.0015 4.19499 39.0054 4.32968 38.7904C4.35688 38.7464 4.38149 38.7011 4.40739 38.6557C10.7549 27.6627 17.1025 16.6683 23.4513 5.67526C24.2621 4.27004 25.0741 2.86483 25.8849 1.45961C25.9302 1.38061 26.0053 1.29901 25.9419 1.19929C25.8797 1.10086 25.7761 1.12417 25.6828 1.13065C25.3992 1.14878 25.1143 1.16562 24.8306 1.18763C23.2777 1.30808 21.7508 1.58265 20.2484 1.98802C8.99352 5.0264 1.13843 15.2994 1.13843 27.0488H1.13973ZM52.9496 26.8843C52.9302 25.966 52.8823 24.9416 52.7618 23.9197C52.552 22.148 52.1712 20.4151 51.5975 18.7263C48.8583 10.6563 42.4343 4.49669 34.2723 2.10588C32.3503 1.54379 30.3881 1.2239 28.3897 1.11252C28.347 1.10993 28.3029 1.10345 28.2602 1.11122C28.1371 1.13065 28.0827 1.22001 28.1307 1.33528C28.163 1.41428 28.211 1.4881 28.255 1.56193C34.7981 12.8943 41.3412 24.2254 47.8843 35.5578C48.5021 36.6263 49.1186 37.6947 49.7364 38.7645C49.783 38.8461 49.8205 38.9445 49.9384 38.9368C50.042 38.9303 50.0731 38.8409 50.112 38.7645C50.1236 38.7412 50.1353 38.7192 50.1469 38.6959C52.0003 35.0151 52.9185 31.1116 52.9496 26.8843Z" fill="white"/>
<path d="M48.2133 39.2049C48.1187 39.2515 48.0319 39.2321 47.9478 39.2321C45.0738 39.2321 42.1999 39.2321 39.3246 39.2321C39.2897 39.2321 39.256 39.2321 39.221 39.2321C39.0099 39.2321 39.0281 39.2191 39.0294 39.0274C39.0307 37.5432 39.0294 36.0577 39.0294 34.5735C39.0294 32.1218 39.0319 29.6701 39.0242 27.2184C39.0242 27.0164 39.0786 26.9102 39.2664 26.826C39.6407 26.6576 39.6705 26.6408 39.98 26.9426C40.1963 27.1524 40.388 27.3868 40.5291 27.6588C40.5874 27.7702 40.6185 27.9295 40.7584 27.9554C40.9578 27.9903 41.1612 28.0525 41.3684 27.9774C41.6857 27.8621 41.687 27.8647 41.8515 28.1496C43.9263 31.7436 46.0024 35.3376 48.076 38.9329C48.1265 39.0197 48.1912 39.1013 48.2094 39.2049H48.2133Z" fill="white"/>
<path d="M27.5453 31.8952C27.5453 29.832 27.5466 27.7689 27.5453 25.7044C27.5453 24.9015 27.654 24.1166 27.9921 23.3836C28.9013 21.4124 30.4309 20.2675 32.6002 20.0499C35.3239 19.7766 37.8857 21.6325 38.4815 24.3964C38.5592 24.759 38.6033 25.1281 38.6033 25.5011C38.6033 29.8955 38.6033 34.2898 38.6033 38.6842C38.6033 38.7011 38.6033 38.7192 38.6033 38.736C38.5994 38.9614 38.5994 38.9627 38.3727 38.964C38.1396 38.9653 37.9065 38.9614 37.6733 38.964C37.5645 38.9653 37.5127 38.9251 37.5192 38.8137C37.5231 38.736 37.5192 38.6583 37.5192 38.5806C37.5192 36.0422 37.5192 33.5037 37.5192 30.9653C37.5192 30.8966 37.5218 30.8267 37.5192 30.758C37.5089 30.5793 37.4661 30.5366 37.2822 30.5262C37.2136 30.5223 37.1436 30.5262 37.075 30.5262C34.71 30.5262 32.3438 30.5262 29.9788 30.5262C29.918 30.5262 29.8584 30.5262 29.7975 30.5262C29.6033 30.521 29.6007 30.521 29.5981 30.3216C29.5955 30.0794 29.6007 29.8385 29.5968 29.5963C29.5955 29.4862 29.6382 29.437 29.7496 29.4435C29.8182 29.4474 29.8882 29.4435 29.9568 29.4435C32.3477 29.4435 34.7398 29.4435 37.1307 29.4435C37.3897 29.4435 37.5192 29.3148 37.5192 29.0575C37.5192 27.8828 37.527 26.7095 37.5179 25.5348C37.5024 23.6024 36.2746 21.9227 34.451 21.3217C31.8931 20.4799 29.1551 22.1312 28.7018 24.7862C28.6487 25.0944 28.6345 25.404 28.6345 25.7148C28.6345 30.0056 28.6345 34.2963 28.6345 38.5871C28.6345 39.0339 28.6656 38.9549 28.2654 38.9614C28.0931 38.964 27.9196 38.964 27.7473 38.9614C27.553 38.9575 27.553 38.9562 27.5466 38.7542C27.544 38.6855 27.5466 38.6156 27.5466 38.5469C27.5466 36.3284 27.5466 34.1098 27.5466 31.89L27.5453 31.8952Z" fill="white"/>
<path d="M15.4848 31.8951C15.4848 29.788 15.4991 27.6821 15.4809 25.5749C15.4576 23.0183 17.2682 20.6858 19.8909 20.1315C22.8788 19.4995 25.9004 21.5212 26.4366 24.5259C26.4988 24.8755 26.5324 25.2252 26.5324 25.5814C26.5312 29.933 26.5324 34.2847 26.5312 38.6363C26.5312 39.0015 26.5687 38.9627 26.1944 38.9653C25.9963 38.9666 25.7968 38.9614 25.5986 38.9653C25.4873 38.9679 25.4406 38.9212 25.4471 38.8111C25.451 38.7425 25.4471 38.6726 25.4471 38.6039C25.4471 36.0655 25.4471 33.527 25.4471 30.9886C25.4471 30.9199 25.4497 30.85 25.4471 30.7813C25.4393 30.5728 25.3966 30.534 25.1803 30.5262C25.1194 30.5236 25.0599 30.5262 24.999 30.5262C22.625 30.5262 20.251 30.5262 17.877 30.5262C17.8083 30.5262 17.7384 30.5236 17.6697 30.5262C17.5726 30.5301 17.5286 30.4912 17.5299 30.3902C17.5324 30.1221 17.5324 29.8553 17.5299 29.5872C17.5299 29.4927 17.5635 29.4409 17.6646 29.4435C17.7332 29.4461 17.8031 29.4435 17.8718 29.4435C20.2717 29.4435 22.6716 29.4435 25.0715 29.4435C25.3219 29.4435 25.4471 29.3191 25.4471 29.0705C25.4471 27.8699 25.4834 26.6693 25.4368 25.47C25.3629 23.5649 24.4304 22.1882 22.6781 21.4422C20.0852 20.3387 17.1063 22.0017 16.631 24.7758C16.5779 25.0841 16.5624 25.3936 16.5624 25.7044C16.5624 30.0043 16.5624 34.3041 16.5624 38.6039C16.5624 39.0274 16.5896 38.9575 16.2036 38.964C16.0223 38.9666 15.841 38.9575 15.6597 38.9666C15.5185 38.9743 15.4745 38.9122 15.4835 38.7839C15.4887 38.7153 15.4835 38.6454 15.4835 38.5767C15.4835 36.3491 15.4835 34.1215 15.4835 31.8939L15.4848 31.8951Z" fill="white"/>
<path d="M37.0892 35.1135C37.0892 36.4164 37.0892 37.7206 37.0892 39.0235C37.0892 39.2308 37.0892 39.2334 36.8781 39.2334C34.8408 39.2334 32.8049 39.2334 30.7676 39.2334C30.7158 39.2334 30.664 39.2334 30.6122 39.2269C30.3583 39.1867 30.3324 39.1505 30.3493 38.8927C30.3687 38.6 30.2884 38.3242 30.1433 38.0781C30.0345 37.8929 29.9853 37.7232 30.0695 37.5212C30.2884 36.9993 30.2159 36.4527 30.2003 35.9126C30.1874 35.4283 30.2431 34.9478 30.2586 34.4647C30.2599 34.4232 30.2716 34.3779 30.2897 34.3404C30.4878 33.9298 30.6718 33.5115 31.0085 33.1825C31.2675 32.9287 31.5175 32.6696 31.8024 32.4417C32.112 32.1943 32.3593 31.877 32.6663 31.6245C32.7893 31.5235 32.7984 31.3486 32.8554 31.2048C32.9473 30.9717 32.9434 30.9678 33.1805 30.9678C34.3979 30.9678 35.614 30.9678 36.8315 30.9678C37.084 30.9678 37.0866 30.9704 37.0866 31.2282C37.0866 32.5233 37.0866 33.8171 37.0866 35.1122L37.0892 35.1135Z" fill="white"/>
<path d="M20.8947 13.6869C21.0656 13.6002 21.1848 13.5483 21.2949 13.4836C21.4088 13.4162 21.414 13.3567 21.3311 13.2556C21.3259 13.2492 21.3195 13.244 21.313 13.2375C21.2456 13.1611 21.1122 13.1171 21.1148 13.0122C21.1187 12.8516 21.1446 12.6884 21.2314 12.5407C21.471 12.1315 21.7067 11.7196 21.9437 11.3078C22.1976 10.8674 22.4514 10.4245 22.7079 9.98544C22.8244 9.7847 22.8024 9.77305 23.0252 9.84687C23.2182 9.91163 23.4137 9.92198 23.6119 9.89738C23.8088 9.87147 24.0017 9.84946 24.1895 9.95307C24.3087 10.0191 24.4304 9.9453 24.534 9.89349C24.8073 9.7588 25.0845 9.77952 25.3681 9.83392C25.394 9.8391 25.4238 9.83392 25.4432 9.84816C25.71 10.0295 26.0092 9.96472 26.2967 9.9453C26.4612 9.93494 26.5856 9.9712 26.6801 10.0994C26.9456 10.4582 27.2772 10.6097 27.7292 10.488C27.9351 10.4323 28.1475 10.5255 28.3547 10.532C28.3625 10.6395 28.2926 10.6602 28.2524 10.6978C27.996 10.9413 27.7331 11.1783 27.4766 11.4217C27.2953 11.594 27.2979 11.629 27.4896 11.7792C27.5168 11.7999 27.544 11.8206 27.5725 11.8414C27.6307 11.8828 27.6566 11.9359 27.6022 11.9916C27.4792 12.1198 27.4857 12.2714 27.5077 12.4281C27.5336 12.612 27.5077 12.7868 27.4274 12.9565C27.3691 13.0808 27.3341 13.2168 27.272 13.3398C27.1541 13.5768 27.114 13.8242 27.114 14.0884C27.114 14.3915 27.0401 14.6764 26.8226 14.9199C26.6192 15.1465 26.3641 15.2489 26.0895 15.2307C25.5961 15.1996 25.1337 15.3499 24.6584 15.4172C24.5522 15.4328 24.468 15.491 24.3851 15.5558C24.1882 15.7099 23.9836 15.8524 23.7673 15.9806C23.595 16.0829 23.4254 16.1334 23.2285 16.0985C22.8711 16.035 22.6664 16.2655 22.4955 16.5142C22.375 16.689 22.2986 16.8976 22.252 17.11C22.2377 17.1773 22.2183 17.2434 22.1976 17.3094C22.0551 17.7705 21.9981 17.8197 21.528 17.8741C21.3376 17.8961 21.1498 17.8572 20.9607 17.8352C20.8934 17.8275 20.8571 17.7795 20.8182 17.7342C20.747 17.6474 20.6797 17.5581 20.6033 17.4765C20.5217 17.3897 20.4867 17.29 20.4802 17.1721C20.4582 16.7577 20.3999 16.3536 20.2238 15.9664C20.1266 15.7514 20.1797 15.5053 20.2536 15.2851C20.3352 15.039 20.4608 14.8124 20.602 14.5935C20.6732 14.4821 20.7483 14.4485 20.8778 14.4731C21.0838 14.5119 21.133 14.4692 21.1148 14.2658C21.098 14.0677 21.1679 13.8385 20.8908 13.6856L20.8947 13.6869Z" fill="white"/>
<path d="M32.6533 26.3611C32.6417 26.0697 32.6456 25.8391 32.722 25.6138C32.7544 25.5166 32.8023 25.4545 32.8929 25.4053C33.0937 25.2965 33.3048 25.2317 33.5276 25.1942C33.6635 25.1708 33.7969 25.1268 33.9329 25.1139C34.2503 25.0815 34.4976 24.9157 34.7282 24.7163C34.9276 24.544 34.9678 24.285 35.0688 24.0596C35.0791 24.035 35.0636 23.9897 35.0455 23.9625C34.8965 23.7436 34.7877 23.4911 34.5443 23.3473C34.372 23.245 34.2321 23.1064 34.113 22.9432C34.0508 22.8564 34.056 22.7969 34.1168 22.7153C34.1855 22.6233 34.2593 22.5482 34.3668 22.5003C34.6025 22.3954 34.8382 22.2879 35.0675 22.1661C35.1452 22.1247 35.1944 22.1428 35.254 22.1817C36.0285 22.6946 36.5686 23.3913 36.8768 24.2681C36.9079 24.3575 36.9208 24.4352 36.8121 24.4831C36.7097 24.5285 36.6955 24.6204 36.6864 24.7188C36.6748 24.8561 36.6644 24.9947 36.6359 25.1294C36.5763 25.4117 36.4857 25.6785 36.2279 25.8521C36.0933 25.9427 36.0518 26.0684 36.0583 26.2303C36.0648 26.3999 36.0738 26.5709 36.0298 26.7444C35.9068 27.2249 35.5467 27.4852 35.1491 27.7041C34.9457 27.8155 34.7308 27.9062 34.53 28.0266C34.3137 28.1561 34.0767 28.1004 33.8513 28.0538C33.5988 28.002 33.354 27.9087 33.0898 27.923C32.9823 27.9282 32.9396 27.8647 32.9124 27.7728C32.7686 27.2936 32.6158 26.8144 32.6507 26.3611H32.6533Z" fill="white"/>
<path d="M5.86573 39.2049C5.88127 39.0987 5.93826 39.0313 5.981 38.9588C6.63505 37.823 7.2904 36.6884 7.94574 35.5526C7.9587 35.5306 7.97165 35.5073 7.9846 35.4852C8.08951 35.313 8.0921 35.3104 8.25529 35.4296C8.37314 35.515 8.50914 35.5914 8.5998 35.7015C8.9469 36.1263 9.45071 36.3426 9.86516 36.6768C9.95452 36.7493 10.0672 36.7713 10.1747 36.8011C10.5335 36.8969 10.8016 37.1171 11.0127 37.4124C11.2432 37.7349 11.466 38.0639 11.6861 38.3928C11.8066 38.5728 11.9335 38.7451 12.1045 38.8824C12.1381 38.9096 12.1653 38.9432 12.1977 38.9717C12.2599 39.0274 12.2495 39.0948 12.2314 39.1634C12.2094 39.2424 12.142 39.2308 12.0837 39.2334C12.0488 39.2359 12.0151 39.2334 11.9801 39.2334C10.0141 39.2334 8.04676 39.2334 6.08073 39.2334C6.01338 39.2334 5.94344 39.2489 5.86703 39.2049H5.86573Z" fill="white"/>
<path d="M36.0026 20.3219C36.1645 20.217 36.2668 20.0784 36.3238 19.9139C36.3743 19.7676 36.4844 19.7287 36.6178 19.7054C36.9455 19.6484 36.9455 19.6471 37.1074 19.9282C37.8275 21.1741 38.5476 22.42 39.2651 23.6659C39.3104 23.7436 39.379 23.8148 39.3816 23.9184C39.1343 23.9184 38.9516 23.7967 38.7742 23.6581C38.7159 23.6128 38.6874 23.5532 38.6628 23.4885C38.1603 22.1687 37.3003 21.1469 36.0932 20.4151C36.0712 20.4022 36.0518 20.384 36.0324 20.3685C36.0259 20.3633 36.0233 20.3543 36.0013 20.3219H36.0026Z" fill="white"/>
<path d="M37.0892 27.6096C37.0892 27.7935 37.0892 27.98 37.0892 28.1665C37.0892 28.3737 37.0905 28.5796 37.0892 28.7868C37.0866 29.0161 37.0853 29.0187 36.8626 29.0187C36.4235 29.02 35.9845 29.0187 35.5454 29.0187C35.1245 29.0187 34.7023 29.0187 34.2619 29.0187C34.28 28.7843 34.429 28.634 34.5274 28.4605C34.5585 28.4061 34.6155 28.4281 34.6673 28.4359C34.8499 28.4631 35.0092 28.5472 35.1724 28.6249C35.3757 28.7221 35.3848 28.7286 35.5273 28.5731C35.7228 28.3582 35.9547 28.2066 36.2189 28.0901C36.4546 27.9864 36.6696 27.8401 36.8833 27.695C36.9364 27.6588 36.9778 27.594 37.0879 27.6096H37.0892Z" fill="white"/>
<path d="M29.295 16.3147C29.1422 16.4222 29.0593 16.5647 28.9634 16.6955C28.6643 17.1048 28.4195 17.1747 27.9455 16.9908C27.8975 16.9727 27.8522 16.9429 27.803 16.9299C27.575 16.8729 27.4611 16.7214 27.43 16.4727C28.0387 16.3018 28.6565 16.2189 29.295 16.3147Z" fill="white"/>
<path d="M17.0895 19.7818C17.1374 19.8789 17.083 19.9463 17.0584 20.0162C16.916 20.4048 16.7618 20.7907 16.7994 21.2194C16.8059 21.2919 16.7813 21.3528 16.7307 21.4072C16.4847 21.6623 16.2645 21.9382 16.0599 22.2322C16.0288 22.2154 16.0029 22.2089 15.9886 22.1907C15.8617 22.0336 15.85 21.8657 15.9537 21.6869C16.0573 21.5082 16.1466 21.3178 16.2671 21.1508C16.5339 20.7829 16.6932 20.3555 16.9406 19.9774C16.982 19.9139 17.0001 19.8336 17.0908 19.7805L17.0895 19.7818Z" fill="white"/>
<path d="M34.96 16.2098C35.2229 16.6644 35.4703 17.0957 35.7202 17.5257C35.7708 17.6125 35.7371 17.6435 35.6555 17.6746C35.4288 17.7601 35.412 17.7549 35.2436 17.5607C34.9729 17.2485 34.8693 16.8729 34.8214 16.4753C34.8098 16.3756 34.8175 16.3756 34.96 16.2111V16.2098Z" fill="white"/>
<path d="M33.6066 19.5953C33.5185 19.5953 33.4408 19.5914 33.3644 19.5953C33.2504 19.6018 33.1623 19.5772 33.1312 19.4477C33.1105 19.3609 33.0406 19.3285 32.9577 19.3143C32.8981 19.3039 32.8398 19.2884 32.7803 19.2767C32.4642 19.2107 32.4422 19.1744 32.5342 18.8662C32.5717 18.7379 32.9175 18.624 32.9849 18.7302C33.1714 19.0216 33.4615 19.2327 33.6117 19.55C33.6143 19.5565 33.6104 19.5655 33.6053 19.594L33.6066 19.5953Z" fill="white"/>
<path d="M34.2295 21.7258C34.1428 21.8501 34.0663 21.9434 34.0081 22.047C33.9355 22.1765 33.8436 22.2063 33.7102 22.1493C33.6195 22.1105 33.4771 22.1415 33.4395 22.0379C33.3942 21.911 33.433 21.7672 33.4615 21.6325C33.4758 21.5665 33.5289 21.56 33.582 21.5691C33.7905 21.6066 34.0042 21.6209 34.2295 21.7258Z" fill="white"/>
<path d="M9.49345 33.0012C9.58411 33.0245 9.63851 33.0996 9.69031 33.176C9.71233 33.2097 9.67995 33.2382 9.65275 33.2576C9.62037 33.2809 9.58282 33.3185 9.54267 33.2822C9.4805 33.2252 9.42869 33.1553 9.40667 33.0737C9.39113 33.018 9.44164 33.0077 9.49345 32.9999V33.0012Z" fill="white"/>
<path d="M39.0617 24.9805C39.1537 25.1307 39.1265 25.3016 39.1835 25.47C39.0073 25.3819 38.9931 25.3263 39.0617 24.9805Z" fill="white"/>
<path d="M17.3291 50.5502C16.9263 50.4 16.543 50.2238 16.1622 50.0425C12.7546 48.4275 9.84832 46.1675 7.43805 43.2677C7.34868 43.1602 7.27745 43.0475 7.22176 42.918C7.03914 42.4958 6.78011 42.1176 6.50295 41.7537C6.37861 41.5905 6.2491 41.4312 6.17139 41.2214C6.25298 41.1773 6.33069 41.1903 6.40322 41.1903C9.158 41.1903 11.9115 41.1903 14.6663 41.1903C14.8981 41.1903 14.8968 41.1929 14.9732 41.4079C15.0885 41.733 15.2102 42.0554 15.3229 42.3818C15.3631 42.4971 15.4291 42.5709 15.5444 42.6136C15.7063 42.6745 15.8604 42.7535 16.021 42.8144C16.3383 42.9322 16.6427 43.0695 16.903 43.2923C17.026 43.3985 17.1841 43.4257 17.333 43.4594C17.5027 43.4982 17.6361 43.5746 17.7319 43.7197C17.8277 43.8647 17.956 43.9386 18.136 43.9606C18.5893 44.0163 19.0193 44.1976 19.4817 44.217C19.5723 44.2209 19.6345 44.2908 19.707 44.3362C20.3015 44.7014 20.8713 45.1094 21.4904 45.4331C21.7611 45.5743 21.9023 45.8281 22.0305 46.0742C22.1432 46.2931 21.8919 46.7153 21.6446 46.771C21.1679 46.8772 20.8027 47.1492 20.4841 47.5028C20.4168 47.5766 20.3779 47.6517 20.3675 47.7527C20.3442 47.9845 20.3144 48.2151 20.3144 48.4495C20.3157 48.8549 20.1202 49.1735 19.8611 49.4623C19.8119 49.518 19.7446 49.5283 19.6772 49.5491C19.3534 49.6488 19.0193 49.6863 18.6825 49.7058C18.3808 49.7226 18.079 49.7369 17.7772 49.7589C17.3887 49.7874 17.2048 50.0697 17.3382 50.4284C17.3498 50.4608 17.368 50.4906 17.333 50.5528L17.3291 50.5502Z" fill="white"/>
<path d="M48.1692 41.2227C46.3379 43.9308 44.0999 46.1947 41.3969 48.0506C41.4228 47.7903 41.3645 47.574 41.3218 47.359C41.2881 47.1893 41.2985 47.0365 41.3813 46.885C41.4383 46.7788 41.4837 46.6661 41.5458 46.5638C41.6469 46.4006 41.7297 46.2348 41.7297 46.0354C41.7297 45.902 41.7854 45.788 41.8878 45.6947C42.025 45.5717 42.1105 45.415 42.196 45.2531C42.3644 44.9332 42.5444 44.6185 42.7296 44.3077C42.8008 44.1885 42.7995 44.0927 42.7296 43.9735C42.5094 43.6031 42.297 43.2275 42.0872 42.8506C42.0173 42.7263 41.9266 42.6305 41.8049 42.5567C41.621 42.444 41.4487 42.3145 41.2933 42.1629C41.2441 42.115 41.1806 42.0775 41.191 41.9946C41.2156 41.799 41.2233 41.6021 41.3049 41.4143C41.3813 41.2408 41.4927 41.1851 41.6831 41.1864C43.7541 41.1942 45.825 41.1903 47.896 41.1916C47.9724 41.1916 48.0514 41.1786 48.1666 41.224L48.1692 41.2227Z" fill="white"/>
<path d="M35.4988 41.2097C35.2048 41.3587 34.9613 41.4662 34.6738 41.4649C34.4432 41.4649 34.2114 41.505 33.9822 41.5335C33.6143 41.5788 33.2867 41.5011 33.0082 41.2369C33.1947 41.1773 34.868 41.1566 35.4988 41.2097Z" fill="white"/>
<path d="M14.7142 10.2328C14.6637 10.3882 14.5497 10.4426 14.4629 10.5203C14.4176 10.5605 14.3684 10.5955 14.3244 10.6382C14.2868 10.6745 14.257 10.7198 14.2816 10.7755C14.3101 10.8402 14.3671 10.8713 14.4293 10.848C14.6546 10.7677 14.8994 10.7289 15.0704 10.5359C15.1442 10.453 15.2141 10.3636 15.3333 10.295C15.3307 10.4582 15.262 10.5864 15.2025 10.7107C15.0755 10.9762 15.1701 11.2365 15.1973 11.4995C15.2038 11.5655 15.2582 11.6082 15.3255 11.6057C15.5664 11.5953 15.8086 11.5836 16.0482 11.5603C16.1402 11.5513 16.1816 11.48 16.1453 11.3894C16.0987 11.2689 16.0404 11.1524 15.9912 11.0332C15.9096 10.8376 16.0288 10.5009 16.2205 10.4167C16.473 10.3053 16.7308 10.2069 16.9872 10.1059C17.0248 10.0904 17.0675 10.0606 17.1063 10.0981C17.1594 10.1486 17.1089 10.1927 17.0908 10.2367C17.0675 10.2924 17.0299 10.3416 17.0105 10.3986C16.9665 10.5281 17.0325 10.6084 17.1646 10.576C17.2812 10.5475 17.3952 10.5022 17.5053 10.453C17.6024 10.409 17.6659 10.4245 17.7164 10.5216C17.7682 10.6214 17.8148 10.7289 17.8899 10.8092C18.1036 11.0384 18.1192 11.2909 18.0272 11.5746C17.9793 11.7222 17.9598 11.8776 17.9223 12.0279C17.8964 12.1341 17.9093 12.2221 18.0272 12.2532C18.1593 12.2882 18.1697 12.3801 18.1632 12.4915C18.1502 12.7324 18.1425 12.9746 18.0932 13.2129C18.0622 13.367 18.0777 13.5043 18.2033 13.6131C18.2888 13.6869 18.294 13.7646 18.2305 13.8618C18.1282 14.0211 18.0376 14.1881 17.9417 14.3526C17.9016 14.4213 17.8536 14.4303 17.7967 14.3759C17.7151 14.2982 17.6399 14.2153 17.5558 14.1402C17.4133 14.012 17.3408 14.0288 17.2786 14.214C17.21 14.4174 17.1284 14.6233 17.2268 14.8409C17.2851 14.9678 17.2216 15.03 17.1141 15.0818C16.9432 15.1647 16.7761 15.254 16.6064 15.3395C16.5378 15.3745 16.4691 15.4043 16.3849 15.3926C16.1143 15.3576 16.0793 15.333 16.0003 15.0624C15.9187 14.7813 15.8151 14.5029 15.7918 14.2089C15.7762 14.0055 15.6571 13.8864 15.512 13.7698C15.446 13.7167 15.3074 13.6779 15.3566 13.5678C15.4032 13.4629 15.5301 13.516 15.6156 13.5354C16.1194 13.6481 16.5676 13.5004 17.0027 13.2647C17.1206 13.2013 17.1543 13.1222 17.1348 12.9927C17.1012 12.7518 17.0636 12.5148 16.9185 12.3102C16.8188 12.1703 16.8486 12.0123 16.8473 11.8595C16.846 11.5798 16.8266 11.559 16.5533 11.5823C16.5274 11.5849 16.5015 11.5927 16.4756 11.5901C16.2205 11.5694 16.0275 11.6704 15.8902 11.8854C15.7853 12.0512 15.6001 12.0926 15.4382 12.169C15.3423 12.2144 15.2724 12.1483 15.1999 12.1069C14.81 11.8841 14.845 11.8465 14.6261 12.2817C14.5329 12.4656 14.4953 12.6521 14.5031 12.8542C14.507 12.9759 14.5096 13.0989 14.3839 13.1987C14.2751 12.9448 14.0614 13.0769 13.8698 13.0704C13.8387 12.937 13.8814 12.8347 13.9682 12.7441C14.0394 12.669 14.1133 12.5964 14.1806 12.5174C14.2143 12.4773 14.2337 12.4268 14.2078 12.3737C14.1767 12.3128 14.1249 12.2882 14.0576 12.2998C14.0239 12.3063 13.9902 12.3141 13.9565 12.3244C13.761 12.3879 13.568 12.3776 13.3776 12.2998C13.2455 12.2454 13.1134 12.2493 12.9774 12.305C12.642 12.441 12.2884 12.5174 11.9633 12.6897C11.6512 12.8542 11.475 13.121 11.3235 13.4111C11.1901 13.6649 11.1124 13.9356 11.0994 14.227C11.093 14.3682 11.1137 14.4847 11.2315 14.5676C11.4465 14.7178 11.5294 14.929 11.5489 15.1841C11.5722 15.4859 11.6861 15.7721 11.7172 16.0739C11.7315 16.2085 11.7198 16.3264 11.6421 16.443C11.5514 16.579 11.4815 16.7305 11.3883 16.8639C11.2302 17.0892 11.1435 17.3366 11.1098 17.606C11.0994 17.6902 11.0606 17.7795 11.1577 17.8391C11.2432 17.8909 11.3041 17.8262 11.3675 17.7847C11.6551 17.5995 11.8985 17.3677 12.0708 17.0737C12.1653 16.9118 12.2871 16.8173 12.4645 16.7706C12.6471 16.7227 12.8246 16.6502 13.0098 16.6074C13.1458 16.5751 13.2183 16.5051 13.2468 16.3717C13.3737 15.7837 13.7765 15.3797 14.1845 14.9834C14.314 14.8577 14.4565 14.745 14.5795 14.6116C14.744 14.4316 14.9577 14.4109 15.1481 14.5585C15.2918 14.6699 15.4162 14.8007 15.5276 14.9458C15.604 15.0442 15.6195 15.1427 15.5962 15.2592C15.5276 15.6089 15.4136 15.9405 15.2232 16.2448C15.0755 16.4805 15.0807 16.4844 15.2685 16.6852C15.3566 16.7797 15.4498 16.8704 15.534 16.9688C15.6221 17.0711 15.7154 17.0853 15.8306 17.0167C15.9044 16.9727 15.986 16.9416 16.0625 16.9027C16.1725 16.847 16.2865 16.8263 16.416 16.8419C16.429 16.9779 16.3681 17.0815 16.3085 17.1851C15.7646 18.1266 15.2206 19.0695 14.6766 20.0097C14.573 20.1898 14.5717 20.182 14.3762 20.1419C14.2078 20.1069 14.0368 20.0784 13.8659 20.0654C13.6936 20.0512 13.6431 20.1172 13.6949 20.2843C13.7584 20.4889 13.8089 20.7039 13.998 20.8425C14.0977 20.915 14.1107 21.0005 14.0446 21.1119C13.77 21.5781 13.5006 22.047 13.2079 22.5508C13.2351 22.1532 13.2196 22.1467 12.8647 22.2141C12.3894 22.3047 11.9361 22.4847 11.4608 22.5715C11.2872 22.6026 11.2367 22.7101 11.2173 22.8564C11.2018 22.9756 11.1499 23.0132 11.0243 22.9834C10.7808 22.9251 10.5296 22.9005 10.29 22.8331C10.0892 22.7761 9.97266 22.8344 9.85868 23.0015C9.70715 23.223 9.55173 23.4393 9.46107 23.6944C9.41574 23.8226 9.33285 23.912 9.21499 23.9793C8.92099 24.1464 8.65031 24.3484 8.40164 24.5764C8.14131 24.8147 7.83695 24.9274 7.50151 24.8678C7.19197 24.8121 6.9951 24.9727 6.78399 25.1346C6.71017 25.1903 6.69074 25.2783 6.66484 25.3599C6.51331 25.8469 6.25946 26.2937 6.1157 26.7833C6.05223 27.0009 5.99266 27.0319 5.85926 26.9983C5.67664 26.9529 5.66757 26.9374 5.71679 26.7535C5.81652 26.3766 5.81781 25.9842 5.90329 25.606C5.9279 25.4946 5.89423 25.3819 5.84242 25.2796C5.69736 24.9947 5.55749 24.7072 5.30105 24.5C5.2337 24.4456 5.17283 24.3834 5.11843 24.3173C5.02647 24.206 4.92286 24.1736 4.77651 24.1995C4.53561 24.2422 4.34523 24.1127 4.31285 23.8731C4.27788 23.6167 4.14577 23.4289 3.98129 23.2476C3.8971 23.1556 3.81939 23.1491 3.70672 23.1919C3.48266 23.2774 3.34925 23.4172 3.27025 23.6542C3.10059 24.1606 2.89595 24.6554 2.70038 25.1527C2.66153 25.2498 2.62267 25.347 2.61879 25.4506C2.60454 25.8262 2.49446 26.181 2.37919 26.5333C2.32868 26.6874 2.33515 26.8105 2.43099 26.9439C2.58382 27.1537 2.69909 27.3868 2.81306 27.6186C2.90372 27.8012 2.92445 27.8064 3.11613 27.7611C3.13296 27.7572 3.14851 27.7494 3.16534 27.7456C3.55777 27.6419 3.70542 27.695 3.9515 28.0279C4.10864 28.2394 4.11339 28.4544 3.96575 28.6729C3.91783 28.7441 3.86731 28.8179 3.80385 28.8736C3.58756 29.0653 3.48654 29.3153 3.40495 29.5846C3.36739 29.7077 3.38552 29.7945 3.46452 29.8916C3.74687 30.24 4.02144 30.5961 4.30249 30.9458C4.39833 31.065 4.44236 31.1971 4.4579 31.3473C4.50971 31.8433 4.46697 32.3316 4.3245 32.8069C4.25068 33.053 4.25716 33.2758 4.4061 33.4933C4.48899 33.6138 4.54856 33.7485 4.6198 33.8767C4.78817 34.1798 5.01223 34.4181 5.35803 34.5165C5.4733 34.5489 5.54324 34.6356 5.6067 34.7315C5.64944 34.7962 5.69736 34.8584 5.74528 34.9193C5.80356 34.9931 5.902 35.0579 5.91365 35.1369C5.92919 35.2456 5.82429 35.335 5.77118 35.4321C5.74399 35.4827 5.72715 35.5435 5.65333 35.5746C5.56008 35.4516 5.53029 35.2962 5.44869 35.1641C5.25701 34.8558 4.97596 34.6395 4.70269 34.4155C4.54209 34.2834 4.43459 34.1344 4.39315 33.9285C4.35429 33.7329 4.24291 33.5633 4.16649 33.3794C4.05511 33.1126 3.89322 32.8535 3.98258 32.5414C3.99942 32.4805 3.97611 32.421 3.94632 32.3679C3.8168 32.127 3.77665 31.8641 3.74557 31.5973C3.70931 31.2826 3.62642 30.9886 3.35444 30.7852C3.26896 30.7205 3.22751 30.6259 3.19643 30.5236C3.13037 30.2996 3.03583 30.0871 2.91667 29.8851C2.85451 29.7802 2.81565 29.6675 2.78586 29.5484C2.69132 29.1547 2.58512 28.7622 2.49316 28.3685C2.46208 28.2351 2.42581 28.1198 2.28594 28.0667C2.19916 28.0331 2.15383 27.9618 2.12404 27.8764C2.07871 27.7469 1.99841 27.6238 1.99841 27.4839C2.001 27.0876 1.87796 26.7185 1.75881 26.3507C1.55029 25.7122 1.56065 25.0737 1.76269 24.4417C1.92718 23.9288 2.01007 23.403 2.06317 22.8694C2.07094 22.7917 2.08001 22.7153 2.1098 22.6427C2.30925 22.1532 2.36365 21.6416 2.33127 21.1184C2.31573 20.8645 2.35846 20.6236 2.42452 20.3789C3.16923 17.5917 4.35947 15.0105 5.981 12.6262C6.07037 12.4954 6.1675 12.3788 6.31126 12.3063C6.43948 12.2416 6.52885 12.138 6.60397 12.0201C6.73089 11.8206 6.89279 11.6562 7.08576 11.5202C7.32925 11.3479 7.49503 11.1018 7.67765 10.8726C8.10893 10.3325 8.57519 9.82485 9.079 9.34954C9.37429 9.06979 9.66959 8.80299 10.0258 8.59448C10.3068 8.43 10.5568 8.21112 10.7446 7.93267C10.8365 7.79668 10.9518 7.67882 11.0489 7.54542C11.1629 7.38742 11.3118 7.28122 11.4815 7.18667C11.9814 6.90434 12.4166 6.5404 12.7935 6.10783C13.1937 5.64806 13.6431 5.24786 14.2078 5.00049C14.3541 4.93703 14.4578 4.82177 14.595 4.74665C15.6765 4.1483 16.7942 3.62766 17.9469 3.18343C18.1192 3.11738 18.2914 3.09924 18.4792 3.12256C18.4546 3.24689 18.3575 3.27538 18.2746 3.30776C18.0298 3.4023 17.8161 3.54218 17.6076 3.69889C17.3434 3.89704 17.0455 4.03692 16.7243 4.11851C16.5559 4.16125 16.4251 4.24284 16.3487 4.40344C16.2412 4.63009 16.0586 4.77514 15.841 4.89688C15.4524 5.11576 15.161 5.4512 14.8606 5.77369C14.8165 5.82161 14.801 5.8773 14.8075 5.94076C14.8113 5.97573 14.8075 6.0107 14.8178 6.04307C14.8929 6.31505 14.8178 6.52745 14.5834 6.68805C14.4876 6.7541 14.4344 6.85253 14.4137 6.96909C14.3619 7.2592 14.2622 7.53506 14.1469 7.80575C14.1301 7.84589 14.1107 7.88475 14.1003 7.92619C14.0666 8.07384 14.1456 8.15284 14.2855 8.08938C14.5355 7.9767 14.7945 7.87568 15.0108 7.69436C15.1753 7.55578 15.3436 7.4185 15.5781 7.36281C15.6091 7.46642 15.4615 7.54154 15.5327 7.64256C15.5871 7.72027 15.6325 7.80445 15.6894 7.87957C15.7542 7.96505 15.7542 8.04275 15.7166 8.14377C15.6506 8.31602 15.5638 8.46367 15.4265 8.59318C15.1558 8.84703 14.8398 9.05166 14.6106 9.34824C14.5601 9.413 14.5005 9.41948 14.4267 9.39358C14.3619 9.37026 14.2959 9.34695 14.2285 9.3327C14.1042 9.3068 14.042 9.23039 14.0083 9.10994C13.9799 9.00763 13.9889 8.85869 13.8439 8.84703C13.7066 8.83667 13.6871 8.9869 13.6198 9.07109C13.5978 9.09828 13.5848 9.13066 13.5654 9.15915C13.4942 9.26406 13.4968 9.36508 13.6159 9.41818C13.8555 9.52568 13.9527 9.72772 14.0032 9.96343C14.0381 10.1266 14.1417 10.1875 14.2972 10.1978C14.4254 10.2056 14.5536 10.2212 14.7116 10.2367L14.7142 10.2328ZM9 17.5192C8.75003 17.4791 8.50525 17.6086 8.26306 17.7459C8.09857 17.8391 8.09469 17.9 8.2255 18.0424C8.50395 18.3429 8.82645 18.5838 9.18909 18.7703C9.35746 18.8571 9.40538 18.8377 9.47143 18.6512C9.51158 18.5372 9.54396 18.4206 9.58152 18.3067C9.60872 18.2225 9.6139 18.1383 9.57893 18.0541C9.52324 17.9194 9.46625 17.7834 9.41444 17.6461C9.37559 17.5425 9.30695 17.4972 9.19686 17.5089C9.14505 17.514 9.09325 17.514 8.9987 17.5192H9ZM8.92876 19.0941C8.92358 18.9698 8.83033 18.8351 8.75133 18.848C8.5441 18.8843 8.31745 18.8804 8.14908 19.0358C7.86544 19.3 7.68671 19.6264 7.59735 20.0046C7.5831 20.068 7.57663 20.1224 7.62843 20.169C7.68153 20.217 7.73593 20.1988 7.79551 20.1768C8.29673 19.9981 8.66844 19.6769 8.8912 19.1899C8.90804 19.1524 8.92099 19.1109 8.92747 19.0928L8.92876 19.0941ZM9.3199 20.6055C9.39113 20.5951 9.42869 20.5641 9.44812 20.5123C9.50899 20.3517 9.56986 20.1898 9.62815 20.0279C9.64757 19.9748 9.63203 19.9269 9.60483 19.8802C9.53101 19.7533 9.46366 19.6225 9.38336 19.5008C9.30436 19.3829 9.21888 19.3777 9.13987 19.4943C9.02461 19.664 8.84717 19.8245 8.83292 20.0227C8.81867 20.2131 9.04533 20.318 9.15282 20.4708C9.17743 20.5058 9.20852 20.5369 9.24219 20.5641C9.26809 20.5848 9.30177 20.5951 9.3199 20.6042V20.6055ZM10.2006 21.1456C10.1954 21.0964 10.1682 21.0536 10.1125 21.0407C10.0452 21.0264 9.9882 21.0174 9.95064 20.9409C9.89236 20.8257 9.80299 20.8464 9.72399 20.928C9.68902 20.9643 9.65793 21.007 9.62555 21.0459C9.42092 21.2997 9.42869 21.336 9.71751 21.5017C9.77709 21.5354 9.83278 21.5794 9.9066 21.5574C9.97265 21.538 10.2006 21.222 10.2006 21.1443V21.1456Z" fill="white"/>
<path d="M18.2396 9.53345C18.2111 9.33141 18.2875 9.28997 18.4598 9.26277C18.7667 9.21355 19.0542 9.10217 19.3366 8.96618C19.5063 8.88459 19.6928 8.83926 19.8715 8.77839C19.9479 8.75249 20.023 8.7227 20.0101 8.62168C19.9997 8.53879 19.9324 8.51548 19.8611 8.50253C19.8521 8.50123 19.843 8.50253 19.8352 8.49735C19.6397 8.39244 19.4635 8.41964 19.3003 8.56858C19.2628 8.60225 19.2148 8.62945 19.1669 8.64629C19.0504 8.68514 18.8924 8.64111 18.8703 8.57117C18.8276 8.43648 18.8833 8.28494 18.9986 8.22148C19.4208 7.98836 19.8521 7.99872 20.2911 8.17486C20.3986 8.2176 20.4426 8.31214 20.4996 8.39503C20.5773 8.509 20.6641 8.54138 20.7807 8.4572C20.9529 8.33287 20.9633 8.42093 21.1213 8.55174C21.2431 8.65276 21.1951 8.73953 21.133 8.84055C21.0514 8.97266 20.9763 9.10865 20.8998 9.24205C20.7133 9.56583 20.466 9.67721 20.1072 9.57748C19.7938 9.49071 19.4946 9.53604 19.1967 9.63835C19.075 9.6798 18.9636 9.74844 18.8315 9.76398C18.6851 9.78211 18.5478 9.81967 18.4986 9.60468C18.4727 9.49459 18.3665 9.52309 18.2849 9.57101L18.2435 9.53345H18.2396Z" fill="white"/>
<path d="M6.83062 30.7852C6.68038 30.7049 6.45762 30.6635 6.34364 30.4576C6.26075 30.3073 6.18434 30.1506 6.13124 29.9874C6.00949 29.6144 5.81781 29.279 5.59634 28.9604C5.48237 28.7972 5.37357 28.6314 5.2855 28.454C5.26349 28.4087 5.23111 28.3594 5.22981 28.3128C5.22981 28.2442 5.25572 28.1704 5.33731 28.1574C5.39948 28.147 5.45776 28.1729 5.48755 28.2351C5.50568 28.274 5.51993 28.3154 5.5277 28.3569C5.5795 28.6211 5.72068 28.8296 5.91624 29.0109C5.99784 29.086 6.06907 29.1754 6.12994 29.2686C6.29054 29.516 6.47963 29.7349 6.70499 29.9278C6.89149 30.0871 7.01323 30.2957 7.06634 30.5391C7.10908 30.7347 7.06893 30.7891 6.83062 30.7839V30.7852Z" fill="white"/>
<path d="M18.2823 9.5723C18.2526 9.63447 18.2176 9.69404 18.1917 9.7588C18.1489 9.86629 18.0544 9.96472 18.1347 10.0955C18.1632 10.1422 18.1179 10.1745 18.0842 10.2004C18.0479 10.2276 18.0117 10.2406 17.9689 10.2043C17.7215 9.99322 17.4185 9.84039 17.2786 9.5205C17.2553 9.4674 17.1996 9.41948 17.2501 9.35602C17.4224 9.14102 17.5389 8.89236 17.6646 8.62815C17.7876 8.71363 17.7785 8.82242 17.7837 8.91696C17.7889 9.03741 17.7837 9.15915 17.7695 9.27831C17.7526 9.41948 17.842 9.47517 17.9404 9.53733C18.0453 9.60338 18.1412 9.63965 18.2409 9.53345L18.2823 9.57101V9.5723Z" fill="white"/>
<path d="M10.966 7.25013C10.8482 7.39907 10.7212 7.54154 10.6138 7.69695C10.3664 8.05052 10.04 8.31214 9.67088 8.52325C9.48179 8.63074 9.31472 8.76025 9.16578 8.91826C9.02978 9.06202 8.88343 9.19542 8.73319 9.32493C8.63735 9.40782 8.54151 9.49977 8.40034 9.50754C8.37573 9.50884 8.34983 9.52179 8.32911 9.53474C8.26823 9.57619 8.2255 9.63576 8.24881 9.70829C8.26046 9.74196 8.30839 9.78082 8.34465 9.78729C8.42365 9.80154 8.4923 9.74455 8.49748 9.6798C8.50913 9.5205 8.60109 9.413 8.69693 9.3055C8.80054 9.19024 8.90804 9.07756 9.01813 8.96877C9.55043 8.44165 10.1035 7.93655 10.672 7.44829C10.764 7.36929 10.8857 7.34986 10.9634 7.2592L10.9673 7.25013H10.966Z" fill="white"/>
<path d="M16.3785 8.81465C16.4147 8.98173 16.3552 9.07627 16.2308 9.15268C16.1 9.23298 15.9822 9.334 15.8565 9.42207C15.806 9.45704 15.762 9.54899 15.6869 9.48035C15.6221 9.41948 15.5586 9.35343 15.5949 9.23557C15.6817 8.95194 15.9187 8.8833 16.1596 8.81724C16.2231 8.80041 16.2943 8.81465 16.3785 8.81465Z" fill="white"/>
<path d="M15.9666 6.5417C15.9925 6.61552 15.9705 6.68157 16.0016 6.74762C16.0832 6.92635 15.9847 7.04162 15.7827 7.01183C15.661 6.9937 15.5418 7.01183 15.4226 7.02996C15.3255 7.04421 15.2802 6.99888 15.2491 6.91729C15.218 6.8344 15.2659 6.79425 15.3203 6.74503C15.4991 6.58314 15.7231 6.5676 15.9679 6.5404L15.9666 6.5417Z" fill="white"/>
<path d="M7.72168 32.057C7.52741 31.8692 7.51964 31.653 7.52093 31.4444C7.52093 31.3188 7.62843 31.2826 7.73722 31.346C7.77349 31.368 7.80846 31.3939 7.84343 31.4185C7.96085 31.5014 7.98244 31.6076 7.90818 31.7371C7.85379 31.833 7.7968 31.9275 7.72168 32.057Z" fill="white"/>
<path d="M16.5158 7.72286C16.3474 7.32007 16.3772 7.21905 16.7256 7.00535C16.7722 7.074 16.7243 7.13357 16.7061 7.19444C16.663 7.34123 16.6988 7.45995 16.8136 7.5506C16.7213 7.6309 16.6224 7.68832 16.5171 7.72286H16.5158Z" fill="white"/>
<path d="M12.37 6.17777C12.0255 6.48083 11.7069 6.82663 11.2587 6.99888C11.6058 6.69711 11.9763 6.42643 12.37 6.17777Z" fill="white"/>
<path d="M17.3744 6.43161C17.2544 6.57149 17.1322 6.57839 17.0079 6.45233C17.1258 6.34225 17.2449 6.33707 17.3744 6.43161Z" fill="white"/>
<path d="M20.1435 10.4944C20.1655 10.3468 20.0943 10.1396 20.3688 10.1059C20.3313 10.2652 20.2315 10.374 20.1435 10.4944Z" fill="white"/>
<path d="M7.10649 11.1161C7.23471 10.9594 7.36422 10.8027 7.49244 10.646C7.40567 10.8363 7.25543 10.9762 7.10649 11.1161Z" fill="white"/>
<path d="M6.04964 31.2372C6.02633 31.1479 5.98618 31.0494 6.08202 31.0067C6.16362 30.9704 6.24262 31.052 6.24392 31.1258C6.24651 31.2502 6.12865 31.2113 6.04835 31.2372H6.04964Z" fill="white"/>
<path d="M16.3085 9.58784C16.3772 9.42466 16.464 9.37673 16.609 9.45444C16.5585 9.59561 16.4497 9.59561 16.3085 9.58784Z" fill="white"/>
<path d="M17.0908 8.25645C17.1322 8.25904 17.153 8.29012 17.153 8.3225C17.153 8.39244 17.0999 8.42741 17.039 8.43129C16.9976 8.43388 17.004 8.38467 17.0053 8.35488C17.0079 8.30048 17.0235 8.25515 17.0921 8.25774L17.0908 8.25645Z" fill="white"/>
<path d="M10.9621 7.26049L10.9531 7.24366C10.9414 7.26049 10.9453 7.26309 10.966 7.25143L10.9621 7.26049Z" fill="white"/>
<path d="M51.5004 22.3785C51.7503 22.5871 51.8993 22.8707 52.0638 23.1427C52.1169 23.2294 52.091 23.3305 52.0767 23.4224C52.043 23.6504 52.0767 23.8653 52.1557 24.0816C52.3461 24.6049 52.4121 25.154 52.4782 25.7031C52.4899 25.8042 52.4562 25.8935 52.4147 25.9764C52.179 26.4439 52.0495 26.9374 51.9938 27.4567C51.964 27.73 51.8876 27.9981 51.8617 28.274C51.8488 28.4216 51.7995 28.5589 51.7426 28.6962C51.5832 29.0782 51.4291 29.4629 51.3683 29.8773C51.3462 30.025 51.2867 30.161 51.2206 30.2892C51.1274 30.4705 51.1481 30.6583 51.1571 30.8461C51.1597 30.9083 51.1779 30.9678 51.2413 30.995C51.319 31.0274 51.3721 30.9847 51.4201 30.929C51.5781 30.7464 51.7361 30.5676 51.8073 30.3255C51.8656 30.1273 51.9524 29.9382 52.0288 29.7452C52.0638 29.6585 52.0922 29.5639 52.1829 29.5121C52.2684 29.5367 52.236 29.6092 52.2386 29.6611C52.2658 30.205 52.2269 30.7425 52.135 31.2826C52.0003 32.0752 51.8397 32.86 51.6208 33.6319C51.4667 34.1772 51.3126 34.7224 51.0768 35.2456C50.7129 36.0551 50.4137 36.8943 50.1171 37.731C50.0653 37.8761 50.0084 38.0172 49.9281 38.1454C49.8335 38.1273 49.818 38.0509 49.7856 37.9939C47.817 34.5864 45.8496 31.1764 43.8784 27.7689C43.7696 27.5811 43.7567 27.3739 43.7295 27.1731C43.701 26.9711 43.9626 26.6797 44.1633 26.6382C44.5532 26.5566 44.9469 26.4996 45.3432 26.4867C45.6579 26.4763 45.9377 26.3624 46.1941 26.2082C46.4817 26.036 46.7536 25.8327 46.9505 25.549C47.0347 25.4273 47.1292 25.3198 47.295 25.3055C47.3883 25.2978 47.4142 25.2239 47.4232 25.1372C47.4517 24.8458 47.4919 24.5569 47.3727 24.2694C47.3144 24.1283 47.2743 23.969 47.273 23.8174C47.2691 23.4729 47.0839 23.2152 46.9065 22.951C46.8106 22.8085 46.7083 22.8008 46.6332 22.951C46.4428 23.3382 46.0957 23.5183 45.7343 23.6892C45.5945 23.7553 45.4559 23.8278 45.3225 23.9081C45.2344 23.9612 45.1697 23.9456 45.0868 23.8938C44.8873 23.7695 44.7695 23.5804 44.6477 23.3926C44.6011 23.3201 44.5584 23.245 44.5156 23.1699C44.3356 22.8487 44.3757 22.4796 44.6128 22.1946C44.9106 21.8372 45.1736 21.4499 45.5116 21.1249C45.6307 21.0096 45.7525 20.9047 45.8949 20.8192C46.0283 20.7402 46.1475 20.6353 46.2822 20.5615C46.5568 20.4112 46.6656 20.1561 46.7549 19.8802C46.7769 19.8116 46.7925 19.752 46.7459 19.686C46.5205 19.3725 46.2097 19.2003 45.8328 19.1705C45.7033 19.1601 45.5673 19.2275 45.4119 19.2638C45.3458 19.0086 45.2577 18.7664 45.0932 18.5631C45.0661 18.5294 45.044 18.4919 45.0194 18.4569C44.9858 18.4116 44.9417 18.3882 44.8847 18.3986C44.8148 18.4116 44.7863 18.4647 44.7785 18.5281C44.7604 18.6991 44.7449 18.8713 44.7293 19.0436C44.7099 19.2482 44.649 19.449 44.6943 19.6601C44.7228 19.7922 44.6905 19.8194 44.5571 19.7883C44.3706 19.7455 44.1828 19.7274 43.9924 19.7209C43.7567 19.7132 43.7502 19.7235 43.6841 19.9372C43.609 20.1833 43.6051 20.4216 43.6738 20.6729C43.7722 21.0303 43.8486 21.3929 44.0636 21.7077C44.1737 21.8696 44.175 22.0677 44.2087 22.2529C44.2203 22.3203 44.1828 22.3669 44.1452 22.4148C44.0001 22.6 43.8357 22.7554 43.6181 22.8616C43.3085 23.0132 43.2062 23.4108 43.3694 23.7125C43.4601 23.8822 43.5624 24.0376 43.7243 24.1503C43.7722 24.1839 43.8383 24.2293 43.7968 24.2966C43.6958 24.4637 43.7787 24.5738 43.916 24.6735C43.8836 24.7668 43.7839 24.7849 43.7489 24.8678C43.6841 25.0193 43.5974 25.0323 43.4873 24.9157C43.3759 24.7965 43.2775 24.6644 43.1751 24.5362C43.1531 24.509 43.1337 24.4792 43.1207 24.4482C42.9964 24.1542 42.7801 23.9819 42.4589 23.9482C42.3009 23.9314 42.2374 23.8369 42.2297 23.6879C42.2167 23.4017 42.0781 23.223 41.8075 23.1077C41.6145 23.0248 41.4202 22.9639 41.2182 22.9251C41.1042 22.9031 41.0368 22.85 40.9811 22.7528C40.2585 21.4953 39.5345 20.239 38.8053 18.9853C38.7367 18.8674 38.7496 18.7936 38.8364 18.6926C39.0449 18.4478 39.2819 18.2367 39.528 18.0321C39.7132 17.8793 39.7093 17.8754 39.594 17.6694C39.5902 17.6617 39.5876 17.6526 39.5811 17.6461C39.3674 17.3884 39.3259 17.1151 39.5034 16.8185C39.5604 16.724 39.5409 16.623 39.5189 16.5181C39.4555 16.2098 39.2884 15.9664 39.0786 15.7423C39.0216 15.6827 38.962 15.6439 38.8804 15.6335C38.8118 15.6244 38.7431 15.5998 38.6758 15.6037C38.3611 15.6206 38.1733 15.4224 37.9855 15.2152C37.922 15.1465 37.9168 15.0701 37.9479 15.0002C38.1189 14.6168 37.9712 14.2995 37.7523 13.9939C37.742 13.9796 37.7355 13.9641 37.7251 13.9498C37.6228 13.8074 37.5348 13.8074 37.4609 13.9602C37.3975 14.0923 37.3236 14.2283 37.3042 14.3695C37.242 14.8292 37.1592 15.2916 37.2628 15.7578C37.3379 16.0933 37.5451 16.3238 37.8443 16.4663C37.9647 16.5233 38.0256 16.5906 38.0826 16.7072C38.2536 17.0594 38.2445 17.4182 38.1694 17.7886C38.0865 17.7925 38.0761 17.7187 38.0502 17.672C37.2809 16.3419 36.5142 15.0105 35.7423 13.6817C35.6749 13.5652 35.6412 13.4693 35.7436 13.3593C35.8601 13.2349 35.8316 13.0782 35.7954 12.9396C35.6982 12.5615 35.921 12.3232 36.1451 12.0823C36.1502 12.0758 36.1593 12.0719 36.1645 12.0654C36.3238 11.8841 36.5155 11.8323 36.7434 11.9204C37.0089 12.0227 37.2472 11.9644 37.4726 11.8038C37.6021 11.7106 37.7485 11.6626 37.9103 11.6678C38.1383 11.6743 38.3637 11.6406 38.567 11.5474C38.826 11.4282 38.9905 11.5953 39.1796 11.7041C39.2133 11.7235 39.2223 11.7611 39.212 11.7947C39.1641 11.9385 39.1576 12.103 38.9866 12.1807C38.8856 12.2273 38.7923 12.2921 38.6991 12.3555C38.6149 12.4125 38.5916 12.485 38.6667 12.5718C38.9711 12.928 39.3609 13.0614 39.8194 13.0148C39.9023 13.0057 39.9463 12.9591 39.9437 12.8788C39.9424 12.8192 39.9282 12.7596 39.9165 12.7C39.8414 12.3555 39.866 12.0149 39.9632 11.6782C40.0473 11.3829 40.0461 11.3829 39.8155 11.2029C39.7417 11.1446 39.6679 11.0863 39.5681 11.0073C39.8077 10.9633 39.8466 10.8273 39.8026 10.6317C39.7391 10.3403 39.7754 10.0541 39.8427 9.76398C39.9295 9.38839 39.9282 9.01669 39.7495 8.65405C39.6329 8.41834 39.6381 8.43388 39.8388 8.2694C39.879 8.23702 39.9191 8.20335 39.9541 8.16579C40.0098 8.10492 40.0098 8.03628 39.9463 7.98318C39.7339 7.80833 39.5474 7.59982 39.2677 7.52341C39.0164 7.45477 38.7975 7.32784 38.5709 7.11933C38.7172 7.13357 38.8182 7.14911 38.918 7.15041C39.0164 7.153 39.142 7.21128 39.1977 7.08824C39.256 6.96002 39.1226 6.91599 39.0527 6.84735C39.0216 6.81756 38.9776 6.79813 38.9542 6.76317C38.8649 6.62847 38.6162 6.71007 38.5942 6.53522C38.5735 6.37722 38.4815 6.26972 38.4271 6.13762C38.4012 6.07416 38.3598 6.01717 38.3313 5.95371C38.2795 5.83844 38.2005 5.77109 38.0684 5.80088C37.9362 5.83067 37.8352 5.77498 37.7407 5.6908C37.6824 5.63899 37.6112 5.60143 37.5594 5.54445C37.2408 5.19347 36.8354 4.96553 36.4326 4.72981C36.0648 4.51482 35.7228 4.26745 35.5001 3.89186C35.4366 3.78566 35.3408 3.74422 35.2229 3.72479C34.9211 3.67558 34.644 3.56031 34.3875 3.39453C34.3461 3.36734 34.2891 3.35309 34.2878 3.27668C34.4096 3.24171 34.5183 3.31553 34.6336 3.3233C34.7113 3.32848 34.7968 3.35309 34.8305 3.25336C34.8629 3.15882 34.7968 3.1109 34.7256 3.07075C34.5624 2.97621 34.4044 2.8713 34.2127 2.83245C33.9304 2.77417 33.6843 2.62393 33.4278 2.50219C33.2258 2.40635 33.0289 2.29756 32.8126 2.23151C32.722 2.20431 32.6378 2.181 32.6106 2.06573C32.595 2.00227 32.5225 1.98025 32.4629 2.01781C32.4098 2.05148 32.3839 2.11106 32.4189 2.17193C32.4565 2.23928 32.5044 2.22503 32.5679 2.19265C32.6818 2.13567 32.7984 2.18618 32.9111 2.21208C34.5727 2.59155 36.1774 3.13551 37.7277 3.85042C40.3323 5.051 42.6674 6.64401 44.7254 8.63722C48.1628 11.967 50.4837 15.9534 51.7011 20.5809C51.7335 20.7065 51.7542 20.8283 51.7244 20.963C51.6882 21.1236 51.7089 21.2906 51.7257 21.4538C51.7451 21.6325 51.7128 21.7918 51.6247 21.9499C51.5509 22.082 51.4537 22.2154 51.5055 22.385C51.3838 22.3552 51.2893 22.3772 51.2349 22.5068C51.2064 22.578 51.1584 22.6415 51.1248 22.7101C51.0794 22.8046 51.0237 22.8344 50.9214 22.7787C50.7777 22.6997 50.6352 22.6259 50.5523 22.4705C50.5083 22.3876 50.4487 22.3112 50.3852 22.2426C50.3308 22.1843 50.2454 22.1765 50.2104 22.2516C50.1184 22.455 50.0822 22.6764 50.0692 22.8979C50.0653 22.9562 50.134 22.995 50.1767 23.0365C50.301 23.1556 50.4396 23.2631 50.5458 23.3952C50.7077 23.596 50.9331 23.6711 51.1546 23.763C51.2621 23.8071 51.3372 23.7799 51.3864 23.675C51.4408 23.5584 51.49 23.438 51.5522 23.3253C51.6221 23.1984 51.6389 23.0701 51.6053 22.929C51.5625 22.7451 51.5314 22.5586 51.4939 22.3734L51.5004 22.3785ZM51.1248 29.911C51.06 29.6054 51.0121 29.3101 50.9098 29.0226C50.8152 28.7609 50.665 28.5719 50.45 28.3944C49.9799 28.0059 49.4799 27.651 49.0875 27.1718C48.9217 26.9685 48.7637 26.7716 48.708 26.51C48.6782 26.3714 48.5992 26.2924 48.4581 26.2497C48.0125 26.115 48.0954 26.071 47.8157 26.4958C47.7574 26.5851 47.7587 26.6654 47.8014 26.7613C48.0358 27.2767 48.3234 27.7494 48.7922 28.0914C48.9075 28.1755 49.0033 28.2299 49.138 28.1406C49.2442 28.0706 49.2973 28.1367 49.3193 28.2351C49.3439 28.3439 49.3569 28.4566 49.3802 28.5654C49.4592 28.9345 49.603 29.2816 49.8905 29.5302C50.1107 29.7206 50.3606 29.8735 50.551 30.1027C50.6469 30.218 51.0652 30.1118 51.1144 29.9745C51.1222 29.9512 51.1222 29.924 51.1235 29.9097L51.1248 29.911ZM46.4247 16.5064C46.4039 16.8729 46.5594 17.2149 46.7744 17.5166C47.0515 17.9052 47.4103 18.2212 47.8273 18.4595C48.0177 18.5683 48.1537 18.703 48.199 18.9231C48.2379 19.107 48.3441 19.2443 48.4943 19.3622C48.8893 19.6704 48.778 19.7145 49.2183 19.3194C49.3025 19.2443 49.3129 19.164 49.2585 19.0669C49.0383 18.6667 48.8336 18.2561 48.4917 17.9401C48.4257 17.8793 48.3622 17.83 48.4593 17.7342C48.5241 17.672 48.4762 17.6008 48.4127 17.5632C48.3247 17.5101 48.2301 17.4661 48.1356 17.426C48.076 17.4014 48.006 17.4065 47.9788 17.4726C47.9257 17.6008 47.8416 17.5386 47.7651 17.5166C47.5786 17.4609 47.4958 17.2822 47.3598 17.1669C47.2031 17.0348 47.137 16.8742 47.15 16.6683C47.1642 16.4378 47.0606 16.2306 46.9816 16.0233C46.9246 15.8744 46.6772 15.8355 46.6254 15.9586C46.5866 16.0505 46.5594 16.1192 46.4532 16.1464C46.4026 16.1593 46.391 16.2254 46.3962 16.2798C46.4026 16.3484 46.4143 16.4171 46.426 16.509L46.4247 16.5064Z" fill="white"/>
<path d="M36.9377 6.97427C37.1164 7.24366 37.2964 7.4729 37.4091 7.74487C37.4467 7.83424 37.505 7.90676 37.5736 7.97411C37.6733 8.06995 37.7757 8.1632 37.865 8.26811C38.1007 8.54527 38.3248 8.83408 38.7431 8.90531C38.6408 9.03482 38.5657 9.06591 38.4595 8.99079C38.2406 8.83667 38.0088 8.69809 37.8054 8.52713C37.6267 8.3769 37.5101 8.16449 37.4324 7.94562C37.3405 7.68659 37.2239 7.45735 36.9804 7.311C36.8444 7.22941 36.8613 7.12192 36.9377 6.97298V6.97427Z" fill="white"/>
<path d="M34.5352 4.28299C34.2619 4.37106 34.2593 4.36977 34.0961 4.21565C34.2645 4.13535 34.3966 4.23248 34.5352 4.28299Z" fill="white"/>
<path d="M62.5508 14V13.2617L63.5059 13.0977V6.37695L62.5508 6.21289V5.46875H63.5059H65.0469L67.7949 11.9434H67.8301L70.4902 5.46875H73.0625V6.21289L72.1074 6.37695V13.0977L73.0625 13.2617V14H69.998V13.2617L71.0059 13.0977V10.625V7.04492L70.9766 7.03906L68.2051 13.6953H67.4375L64.5723 7.05078L64.543 7.05664L64.584 10.625V13.0977L65.6152 13.2617V14H62.5508ZM76.9355 14.123C76.3496 14.123 75.8398 13.9902 75.4062 13.7246C74.9727 13.4551 74.6367 13.082 74.3984 12.6055C74.1641 12.1289 74.0469 11.5781 74.0469 10.9531V10.6953C74.0469 10.0938 74.1699 9.55664 74.416 9.08398C74.666 8.60742 74.9961 8.23242 75.4062 7.95898C75.8203 7.68164 76.2715 7.54297 76.7598 7.54297C77.3301 7.54297 77.8066 7.66016 78.1895 7.89453C78.5762 8.12891 78.8672 8.45898 79.0625 8.88477C79.2578 9.30664 79.3555 9.80469 79.3555 10.3789V11.0996H75.2422L75.2246 11.1289C75.2324 11.5352 75.3027 11.8965 75.4355 12.2129C75.5723 12.5254 75.7676 12.7715 76.0215 12.9512C76.2754 13.1309 76.5801 13.2207 76.9355 13.2207C77.3262 13.2207 77.668 13.166 77.9609 13.0566C78.2578 12.9434 78.5137 12.7891 78.7285 12.5938L79.1797 13.3438C78.9531 13.5625 78.6523 13.748 78.2773 13.9004C77.9062 14.0488 77.459 14.123 76.9355 14.123ZM75.2773 10.1973H78.2012V10.0449C78.2012 9.74023 78.1465 9.46875 78.0371 9.23047C77.9316 8.98828 77.7715 8.79883 77.5566 8.66211C77.3457 8.52148 77.0801 8.45117 76.7598 8.45117C76.502 8.45117 76.2676 8.52734 76.0566 8.67969C75.8457 8.82812 75.6719 9.03125 75.5352 9.28906C75.3984 9.54688 75.3086 9.83984 75.2656 10.168L75.2773 10.1973ZM80.0527 14V13.2617L80.9551 13.1328L82.6016 10.6836L81.541 9.08984C81.4277 8.92188 81.3066 8.79102 81.1777 8.69727C81.0527 8.60352 80.9102 8.55664 80.75 8.55664C80.668 8.55664 80.6152 8.55859 80.5918 8.5625C80.5684 8.56641 80.4727 8.58203 80.3047 8.60938L80.1406 7.82422C80.2852 7.73047 80.416 7.66211 80.5332 7.61914C80.6504 7.57227 80.8008 7.54883 80.9844 7.54883C81.2773 7.54883 81.5449 7.63672 81.7871 7.8125C82.0332 7.98828 82.2539 8.23828 82.4492 8.5625L83.5449 10.3379H84.2422V8.56836L83.2871 8.4043V7.66016H86.3516V8.4043L85.3965 8.56836V10.3379H86.1523L87.248 8.5625C87.4395 8.23828 87.6562 7.98828 87.8984 7.8125C88.1445 7.63672 88.418 7.54883 88.7188 7.54883C88.8984 7.54883 89.0469 7.57227 89.1641 7.61914C89.2852 7.66602 89.416 7.73438 89.5566 7.82422L89.3984 8.60938C89.2305 8.58203 89.1328 8.56641 89.1055 8.5625C89.082 8.55859 89.0312 8.55664 88.9531 8.55664C88.7891 8.55664 88.6426 8.60352 88.5137 8.69727C88.3848 8.79102 88.2676 8.92188 88.1621 9.08984L87.0664 10.7305L88.6895 13.1328L89.5859 13.2617V14H87.8164L86.1699 11.3105H85.3965V13.0977L86.3516 13.2617V14H83.2871V13.2617L84.2422 13.0977V11.3105H83.4629L81.8223 14H80.0527ZM90.4473 15.8633L90.3359 13.0977H90.834C90.998 12.9102 91.1406 12.7246 91.2617 12.541C91.3867 12.3535 91.4922 12.1484 91.5781 11.9258C91.668 11.6992 91.7402 11.4355 91.7949 11.1348C91.8535 10.8301 91.8965 10.4668 91.9238 10.0449L91.9824 8.5625L91.0625 8.4043V7.66016H96.1602H97.1152V8.4043L96.1602 8.56836V13.0977H97.0039L96.8867 15.8633H95.8496V14H91.4844V15.8633H90.4473ZM92.1641 13.0977H95.0059V8.68555H93.1309L93.0781 10.0449C93.0352 10.748 92.9336 11.3477 92.7734 11.8438C92.6172 12.3398 92.4141 12.7578 92.1641 13.0977ZM99.4004 16.5605C99.3105 16.5605 99.1934 16.5488 99.0488 16.5254C98.9043 16.5059 98.793 16.4863 98.7148 16.4668L98.832 15.5586C98.8984 15.5664 98.9902 15.5723 99.1074 15.5762C99.2246 15.584 99.3047 15.5879 99.3477 15.5879C99.5938 15.5879 99.793 15.4941 99.9453 15.3066C100.102 15.1191 100.246 14.8633 100.379 14.5391L100.654 13.8711L98.4102 8.49805L97.7305 8.4043V7.66016H100.391V8.4043L99.623 8.52148L100.859 11.6914L101.158 12.5176H101.193L102.658 8.52148L101.85 8.4043V7.66016H104.457V8.4043L103.801 8.49805L101.305 14.9727C101.188 15.2773 101.045 15.5488 100.877 15.7871C100.713 16.0293 100.51 16.2188 100.268 16.3555C100.029 16.4922 99.7402 16.5605 99.4004 16.5605ZM105.143 14V13.2617L106.098 13.0977V8.56836L105.143 8.4043V7.66016H108.207V8.4043L107.252 8.56836V10.4023H110.07V8.56836L109.115 8.4043V7.66016H110.07H111.23H112.186V8.4043L111.23 8.56836V13.0977L112.186 13.2617V14H109.115V13.2617L110.07 13.0977V11.3047H107.252V13.0977L108.207 13.2617V14H105.143ZM115.238 14.123C114.578 14.123 114.076 13.9629 113.732 13.6426C113.389 13.3184 113.217 12.8633 113.217 12.2773C113.217 11.6758 113.463 11.1934 113.955 10.8301C114.447 10.4629 115.131 10.2793 116.006 10.2793H117.137V9.6582C117.137 9.27539 117.02 8.97852 116.785 8.76758C116.555 8.55664 116.229 8.45117 115.807 8.45117C115.541 8.45117 115.311 8.48438 115.115 8.55078C114.92 8.61328 114.742 8.70117 114.582 8.81445L114.459 9.69922H113.568V8.24609C113.854 8.01562 114.186 7.8418 114.564 7.72461C114.943 7.60352 115.363 7.54297 115.824 7.54297C116.594 7.54297 117.197 7.72656 117.635 8.09375C118.072 8.46094 118.291 8.98633 118.291 9.66992V12.7227C118.291 12.8047 118.291 12.8848 118.291 12.9629C118.295 13.041 118.301 13.1191 118.309 13.1973L118.924 13.2617V14H117.266C117.23 13.8281 117.203 13.6738 117.184 13.5371C117.164 13.4004 117.15 13.2637 117.143 13.127C116.92 13.4121 116.641 13.6504 116.305 13.8418C115.973 14.0293 115.617 14.123 115.238 14.123ZM115.408 13.1562C115.791 13.1562 116.141 13.0645 116.457 12.8809C116.773 12.6973 117 12.4766 117.137 12.2188V11.0703H115.965C115.434 11.0703 115.035 11.1973 114.77 11.4512C114.504 11.7051 114.371 11.9883 114.371 12.3008C114.371 12.5781 114.457 12.791 114.629 12.9395C114.801 13.084 115.061 13.1562 115.408 13.1562ZM119.645 16.4375V15.6934L120.541 15.5293V8.56836L119.586 8.4043V7.66016H121.531L121.637 8.43359C121.848 8.14453 122.104 7.92383 122.404 7.77148C122.709 7.61914 123.061 7.54297 123.459 7.54297C123.982 7.54297 124.43 7.68555 124.801 7.9707C125.172 8.25195 125.455 8.64844 125.65 9.16016C125.846 9.66797 125.943 10.2637 125.943 10.9473V11.0703C125.943 11.6797 125.844 12.2129 125.645 12.6699C125.449 13.127 125.168 13.4844 124.801 13.7422C124.434 13.9961 123.992 14.123 123.477 14.123C123.086 14.123 122.742 14.0586 122.445 13.9297C122.152 13.7969 121.902 13.6016 121.695 13.3438V15.5293L122.703 15.6934V16.4375H119.645ZM123.119 13.2207C123.666 13.2207 124.08 13.0215 124.361 12.623C124.643 12.2246 124.783 11.707 124.783 11.0703V10.9473C124.783 10.4629 124.721 10.0371 124.596 9.66992C124.471 9.29883 124.283 9.00781 124.033 8.79688C123.787 8.58594 123.479 8.48047 123.107 8.48047C122.779 8.48047 122.498 8.55469 122.264 8.70312C122.029 8.85156 121.84 9.05469 121.695 9.3125V12.4004C121.84 12.6621 122.027 12.8652 122.258 13.0098C122.492 13.1504 122.779 13.2207 123.119 13.2207ZM130.186 14.123C129.6 14.123 129.094 13.9863 128.668 13.7129C128.246 13.4355 127.92 13.0547 127.689 12.5703C127.459 12.082 127.344 11.5254 127.344 10.9004V10.7715C127.344 10.1465 127.459 9.5918 127.689 9.10742C127.92 8.61914 128.246 8.23633 128.668 7.95898C129.094 7.68164 129.596 7.54297 130.174 7.54297C130.76 7.54297 131.264 7.68164 131.686 7.95898C132.111 8.23633 132.439 8.61719 132.67 9.10156C132.9 9.58594 133.016 10.1426 133.016 10.7715V10.9004C133.016 11.5293 132.9 12.0879 132.67 12.5762C132.439 13.0605 132.113 13.4395 131.691 13.7129C131.27 13.9863 130.768 14.123 130.186 14.123ZM130.186 13.2207C130.553 13.2207 130.859 13.1211 131.105 12.9219C131.355 12.7188 131.543 12.4434 131.668 12.0957C131.797 11.7441 131.861 11.3457 131.861 10.9004V10.7715C131.861 10.3262 131.797 9.92969 131.668 9.58203C131.543 9.23047 131.355 8.95508 131.105 8.75586C130.855 8.55273 130.545 8.45117 130.174 8.45117C129.807 8.45117 129.498 8.55273 129.248 8.75586C128.998 8.95508 128.811 9.23047 128.686 9.58203C128.561 9.92969 128.498 10.3262 128.498 10.7715V10.9004C128.498 11.3457 128.561 11.7441 128.686 12.0957C128.811 12.4434 128.998 12.7188 129.248 12.9219C129.502 13.1211 129.814 13.2207 130.186 13.2207ZM133.701 15.8633L133.59 13.0977H134.088C134.252 12.9102 134.395 12.7246 134.516 12.541C134.641 12.3535 134.746 12.1484 134.832 11.9258C134.922 11.6992 134.994 11.4355 135.049 11.1348C135.107 10.8301 135.15 10.4668 135.178 10.0449L135.236 8.5625L134.316 8.4043V7.66016H139.414H140.369V8.4043L139.414 8.56836V13.0977H140.258L140.141 15.8633H139.104V14H134.738V15.8633H133.701ZM135.418 13.0977H138.26V8.68555H136.385L136.332 10.0449C136.289 10.748 136.188 11.3477 136.027 11.8438C135.871 12.3398 135.668 12.7578 135.418 13.0977ZM141.412 14V13.2617L142.367 13.0977V8.56836L141.412 8.4043V7.66016H144.477V8.4043L143.521 8.56836V10.4023H146.34V8.56836L145.385 8.4043V7.66016H146.34H147.5H148.455V8.4043L147.5 8.56836V13.0977L148.455 13.2617V14H145.385V13.2617L146.34 13.0977V11.3047H143.521V13.0977L144.477 13.2617V14H141.412ZM151.508 14.123C150.848 14.123 150.346 13.9629 150.002 13.6426C149.658 13.3184 149.486 12.8633 149.486 12.2773C149.486 11.6758 149.732 11.1934 150.225 10.8301C150.717 10.4629 151.4 10.2793 152.275 10.2793H153.406V9.6582C153.406 9.27539 153.289 8.97852 153.055 8.76758C152.824 8.55664 152.498 8.45117 152.076 8.45117C151.811 8.45117 151.58 8.48438 151.385 8.55078C151.189 8.61328 151.012 8.70117 150.852 8.81445L150.729 9.69922H149.838V8.24609C150.123 8.01562 150.455 7.8418 150.834 7.72461C151.213 7.60352 151.633 7.54297 152.094 7.54297C152.863 7.54297 153.467 7.72656 153.904 8.09375C154.342 8.46094 154.561 8.98633 154.561 9.66992V12.7227C154.561 12.8047 154.561 12.8848 154.561 12.9629C154.564 13.041 154.57 13.1191 154.578 13.1973L155.193 13.2617V14H153.535C153.5 13.8281 153.473 13.6738 153.453 13.5371C153.434 13.4004 153.42 13.2637 153.412 13.127C153.189 13.4121 152.91 13.6504 152.574 13.8418C152.242 14.0293 151.887 14.123 151.508 14.123ZM151.678 13.1562C152.061 13.1562 152.41 13.0645 152.727 12.8809C153.043 12.6973 153.27 12.4766 153.406 12.2188V11.0703H152.234C151.703 11.0703 151.305 11.1973 151.039 11.4512C150.773 11.7051 150.641 11.9883 150.641 12.3008C150.641 12.5781 150.727 12.791 150.898 12.9395C151.07 13.084 151.33 13.1562 151.678 13.1562ZM156.037 14V13.2617L156.869 13.1387L157.953 11.3691C157.551 11.2246 157.24 10.9961 157.021 10.6836C156.807 10.3711 156.699 10.0098 156.699 9.59961C156.699 9.2168 156.797 8.88086 156.992 8.5918C157.188 8.29883 157.467 8.07031 157.83 7.90625C158.197 7.74219 158.631 7.66016 159.131 7.66016H162.764V8.4043L161.809 8.56836V13.0977L162.764 13.2617V14H159.699V13.2617L160.654 13.0977V11.5391H159.09L157.59 14H156.037ZM159.014 10.6309H160.654V8.55664H159.131C158.713 8.55664 158.396 8.66211 158.182 8.87305C157.967 9.08008 157.859 9.32617 157.859 9.61133C157.859 9.89258 157.955 10.1328 158.146 10.332C158.342 10.5312 158.631 10.6309 159.014 10.6309ZM166.684 14V13.2617L167.316 13.1738L170.299 5.46875H171.289L174.219 13.1738L174.846 13.2617V14H172.396V13.2617L173.041 13.1504L172.479 11.5801H169.062L168.482 13.1504L169.127 13.2617V14H166.684ZM169.42 10.6133H172.127L170.873 7.14453L170.803 6.95117H170.768L170.697 7.14453L169.42 10.6133ZM178.385 14.123C177.811 14.123 177.311 13.9902 176.885 13.7246C176.459 13.4551 176.129 13.082 175.895 12.6055C175.66 12.1289 175.543 11.5781 175.543 10.9531V10.707C175.543 10.1055 175.656 9.56641 175.883 9.08984C176.109 8.61328 176.436 8.23633 176.861 7.95898C177.287 7.68164 177.795 7.54297 178.385 7.54297C178.896 7.54297 179.344 7.62695 179.727 7.79492C180.113 7.96289 180.438 8.19336 180.699 8.48633L180.729 10.0098H179.826L179.627 8.90234C179.494 8.76562 179.328 8.65625 179.129 8.57422C178.93 8.49219 178.695 8.45117 178.426 8.45117C178.082 8.45117 177.779 8.55273 177.518 8.75586C177.26 8.95898 177.059 9.23047 176.914 9.57031C176.77 9.91016 176.697 10.2891 176.697 10.707V10.9531C176.697 11.4141 176.764 11.8145 176.896 12.1543C177.033 12.4941 177.227 12.7578 177.477 12.9453C177.73 13.1289 178.031 13.2207 178.379 13.2207C178.77 13.2207 179.094 13.1133 179.352 12.8984C179.609 12.6836 179.768 12.3887 179.826 12.0137H180.863L180.875 12.0488C180.855 12.4121 180.748 12.752 180.553 13.0684C180.357 13.3848 180.078 13.6406 179.715 13.8359C179.355 14.0273 178.912 14.123 178.385 14.123ZM184.877 14.123C184.303 14.123 183.803 13.9902 183.377 13.7246C182.951 13.4551 182.621 13.082 182.387 12.6055C182.152 12.1289 182.035 11.5781 182.035 10.9531V10.707C182.035 10.1055 182.148 9.56641 182.375 9.08984C182.602 8.61328 182.928 8.23633 183.354 7.95898C183.779 7.68164 184.287 7.54297 184.877 7.54297C185.389 7.54297 185.836 7.62695 186.219 7.79492C186.605 7.96289 186.93 8.19336 187.191 8.48633L187.221 10.0098H186.318L186.119 8.90234C185.986 8.76562 185.82 8.65625 185.621 8.57422C185.422 8.49219 185.188 8.45117 184.918 8.45117C184.574 8.45117 184.271 8.55273 184.01 8.75586C183.752 8.95898 183.551 9.23047 183.406 9.57031C183.262 9.91016 183.189 10.2891 183.189 10.707V10.9531C183.189 11.4141 183.256 11.8145 183.389 12.1543C183.525 12.4941 183.719 12.7578 183.969 12.9453C184.223 13.1289 184.523 13.2207 184.871 13.2207C185.262 13.2207 185.586 13.1133 185.844 12.8984C186.102 12.6836 186.26 12.3887 186.318 12.0137H187.355L187.367 12.0488C187.348 12.4121 187.24 12.752 187.045 13.0684C186.85 13.3848 186.57 13.6406 186.207 13.8359C185.848 14.0273 185.404 14.123 184.877 14.123ZM190.438 14.123C189.777 14.123 189.275 13.9629 188.932 13.6426C188.588 13.3184 188.416 12.8633 188.416 12.2773C188.416 11.6758 188.662 11.1934 189.154 10.8301C189.646 10.4629 190.33 10.2793 191.205 10.2793H192.336V9.6582C192.336 9.27539 192.219 8.97852 191.984 8.76758C191.754 8.55664 191.428 8.45117 191.006 8.45117C190.74 8.45117 190.51 8.48438 190.314 8.55078C190.119 8.61328 189.941 8.70117 189.781 8.81445L189.658 9.69922H188.768V8.24609C189.053 8.01562 189.385 7.8418 189.764 7.72461C190.143 7.60352 190.562 7.54297 191.023 7.54297C191.793 7.54297 192.396 7.72656 192.834 8.09375C193.271 8.46094 193.49 8.98633 193.49 9.66992V12.7227C193.49 12.8047 193.49 12.8848 193.49 12.9629C193.494 13.041 193.5 13.1191 193.508 13.1973L194.123 13.2617V14H192.465C192.43 13.8281 192.402 13.6738 192.383 13.5371C192.363 13.4004 192.35 13.2637 192.342 13.127C192.119 13.4121 191.84 13.6504 191.504 13.8418C191.172 14.0293 190.816 14.123 190.438 14.123ZM190.607 13.1562C190.99 13.1562 191.34 13.0645 191.656 12.8809C191.973 12.6973 192.199 12.4766 192.336 12.2188V11.0703H191.164C190.633 11.0703 190.234 11.1973 189.969 11.4512C189.703 11.7051 189.57 11.9883 189.57 12.3008C189.57 12.5781 189.656 12.791 189.828 12.9395C190 13.084 190.26 13.1562 190.607 13.1562ZM195.154 14V13.2617L196.109 13.0977V8.56836L195.154 8.4043V7.66016H196.109H197.598L199.66 12.4883H199.695L201.764 7.66016H203.211H204.166V8.4043L203.211 8.56836V13.0977L204.166 13.2617V14H201.102V13.2617L202.057 13.0977V9.59961L202.021 9.58789L200.076 14H199.279L197.299 9.49414L197.264 9.50586V13.0977L198.219 13.2617V14H195.154ZM208.145 14.123C207.562 14.123 207.059 13.9922 206.633 13.7305C206.207 13.4648 205.879 13.0996 205.648 12.6348C205.422 12.166 205.309 11.6289 205.309 11.0234V10.2031C205.309 9.36719 205.428 8.64648 205.666 8.04102C205.904 7.43164 206.24 6.94141 206.674 6.57031C207.107 6.19922 207.617 5.95508 208.203 5.83789C208.695 5.74805 209.051 5.64062 209.27 5.51562C209.492 5.39062 209.604 5.18555 209.604 4.90039H210.494L210.506 4.93555C210.514 5.2793 210.477 5.55859 210.395 5.77344C210.316 5.98828 210.191 6.16016 210.02 6.28906C209.848 6.41797 209.629 6.51953 209.363 6.59375C209.098 6.66797 208.783 6.73633 208.42 6.79883C208.064 6.85742 207.74 6.96875 207.447 7.13281C207.158 7.29297 206.918 7.51367 206.727 7.79492C206.539 8.07227 206.416 8.41797 206.357 8.83203L206.381 8.86133C206.611 8.61523 206.9 8.41406 207.248 8.25781C207.6 8.10156 207.973 8.02344 208.367 8.02344C208.906 8.02344 209.371 8.14648 209.762 8.39258C210.152 8.63477 210.453 8.97266 210.664 9.40625C210.875 9.83594 210.98 10.332 210.98 10.8945V11.0234C210.98 11.6289 210.865 12.166 210.635 12.6348C210.408 13.0996 210.082 13.4648 209.656 13.7305C209.234 13.9922 208.73 14.123 208.145 14.123ZM208.145 13.2207C208.512 13.2207 208.82 13.127 209.07 12.9395C209.32 12.748 209.508 12.4863 209.633 12.1543C209.762 11.8223 209.826 11.4453 209.826 11.0234V10.8945C209.826 10.5195 209.762 10.1836 209.633 9.88672C209.504 9.58984 209.314 9.35547 209.064 9.18359C208.814 9.01172 208.504 8.92578 208.133 8.92578C207.766 8.92578 207.457 9.01172 207.207 9.18359C206.961 9.35547 206.775 9.58984 206.65 9.88672C206.525 10.1836 206.463 10.5195 206.463 10.8945V11.0234C206.463 11.4453 206.525 11.8223 206.65 12.1543C206.775 12.4863 206.963 12.748 207.213 12.9395C207.463 13.127 207.773 13.2207 208.145 13.2207ZM211.924 14L211.941 13.0156L212.182 13.0098C212.459 13.0098 212.678 12.9238 212.838 12.752C212.998 12.5762 213.113 12.2949 213.184 11.9082C213.254 11.5176 213.289 11.0039 213.289 10.3672V8.56836L212.334 8.4043V7.66016H217.748H218.703V8.4043L217.748 8.56836V13.0977L218.703 13.2617V14H215.639V13.2617L216.594 13.0977V8.57422H214.443V10.3672C214.443 11.6172 214.277 12.5352 213.945 13.1211C213.617 13.707 213.053 14 212.252 14H211.924ZM222.553 14.123C221.967 14.123 221.457 13.9902 221.023 13.7246C220.59 13.4551 220.254 13.082 220.016 12.6055C219.781 12.1289 219.664 11.5781 219.664 10.9531V10.6953C219.664 10.0938 219.787 9.55664 220.033 9.08398C220.283 8.60742 220.613 8.23242 221.023 7.95898C221.438 7.68164 221.889 7.54297 222.377 7.54297C222.947 7.54297 223.424 7.66016 223.807 7.89453C224.193 8.12891 224.484 8.45898 224.68 8.88477C224.875 9.30664 224.973 9.80469 224.973 10.3789V11.0996H220.859L220.842 11.1289C220.85 11.5352 220.92 11.8965 221.053 12.2129C221.189 12.5254 221.385 12.7715 221.639 12.9512C221.893 13.1309 222.197 13.2207 222.553 13.2207C222.943 13.2207 223.285 13.166 223.578 13.0566C223.875 12.9434 224.131 12.7891 224.346 12.5938L224.797 13.3438C224.57 13.5625 224.27 13.748 223.895 13.9004C223.523 14.0488 223.076 14.123 222.553 14.123ZM220.895 10.1973H223.818V10.0449C223.818 9.74023 223.764 9.46875 223.654 9.23047C223.549 8.98828 223.389 8.79883 223.174 8.66211C222.963 8.52148 222.697 8.45117 222.377 8.45117C222.119 8.45117 221.885 8.52734 221.674 8.67969C221.463 8.82812 221.289 9.03125 221.152 9.28906C221.016 9.54688 220.926 9.83984 220.883 10.168L220.895 10.1973ZM225.822 14V13.2617L226.654 13.1387L227.738 11.3691C227.336 11.2246 227.025 10.9961 226.807 10.6836C226.592 10.3711 226.484 10.0098 226.484 9.59961C226.484 9.2168 226.582 8.88086 226.777 8.5918C226.973 8.29883 227.252 8.07031 227.615 7.90625C227.982 7.74219 228.416 7.66016 228.916 7.66016H232.549V8.4043L231.594 8.56836V13.0977L232.549 13.2617V14H229.484V13.2617L230.439 13.0977V11.5391H228.875L227.375 14H225.822ZM228.799 10.6309H230.439V8.55664H228.916C228.498 8.55664 228.182 8.66211 227.967 8.87305C227.752 9.08008 227.645 9.32617 227.645 9.61133C227.645 9.89258 227.74 10.1328 227.932 10.332C228.127 10.5312 228.416 10.6309 228.799 10.6309ZM65.9551 32.123C65.4043 32.123 64.9102 32.0176 64.4727 31.8066C64.0352 31.5957 63.6621 31.2988 63.3535 30.916C63.0488 30.5293 62.8145 30.0723 62.6504 29.5449C62.4902 29.0176 62.4102 28.4355 62.4102 27.7988V27.6758C62.4102 27.043 62.4902 26.4629 62.6504 25.9355C62.8145 25.4043 63.0488 24.9453 63.3535 24.5586C63.6621 24.1719 64.0352 23.873 64.4727 23.6621C64.9102 23.4512 65.4043 23.3457 65.9551 23.3457C66.5371 23.3457 67.0488 23.4512 67.4902 23.6621C67.9316 23.873 68.3008 24.1719 68.5977 24.5586C68.8984 24.9453 69.125 25.4043 69.2773 25.9355C69.4297 26.4629 69.5059 27.043 69.5059 27.6758V27.7988C69.5059 28.4355 69.4297 29.0176 69.2773 29.5449C69.125 30.0723 68.8984 30.5293 68.5977 30.916C68.3008 31.2988 67.9316 31.5957 67.4902 31.8066C67.0488 32.0176 66.5371 32.123 65.9551 32.123ZM65.9551 31.1621C66.5215 31.1621 66.9785 31.0215 67.3262 30.7402C67.6777 30.459 67.9355 30.0664 68.0996 29.5625C68.2637 29.0547 68.3457 28.4668 68.3457 27.7988V27.6641C68.3457 27 68.2617 26.418 68.0938 25.918C67.9297 25.4141 67.6719 25.0215 67.3203 24.7402C66.9688 24.4551 66.5137 24.3125 65.9551 24.3125C65.4434 24.3125 65.0098 24.4551 64.6543 24.7402C64.2988 25.0254 64.0293 25.4199 63.8457 25.9238C63.6621 26.4238 63.5703 27.0039 63.5703 27.6641V27.7988C63.5703 28.4629 63.6621 29.0488 63.8457 29.5566C64.0293 30.0605 64.2988 30.4551 64.6543 30.7402C65.0098 31.0215 65.4434 31.1621 65.9551 31.1621ZM73.9297 32.123C73.3477 32.123 72.8438 31.9922 72.418 31.7305C71.9922 31.4648 71.6641 31.0996 71.4336 30.6348C71.207 30.166 71.0938 29.6289 71.0938 29.0234V28.2031C71.0938 27.3672 71.2129 26.6465 71.4512 26.041C71.6895 25.4316 72.0254 24.9414 72.459 24.5703C72.8926 24.1992 73.4023 23.9551 73.9883 23.8379C74.4805 23.748 74.8359 23.6406 75.0547 23.5156C75.2773 23.3906 75.3887 23.1855 75.3887 22.9004H76.2793L76.291 22.9355C76.2988 23.2793 76.2617 23.5586 76.1797 23.7734C76.1016 23.9883 75.9766 24.1602 75.8047 24.2891C75.6328 24.418 75.4141 24.5195 75.1484 24.5938C74.8828 24.668 74.5684 24.7363 74.2051 24.7988C73.8496 24.8574 73.5254 24.9688 73.2324 25.1328C72.9434 25.293 72.7031 25.5137 72.5117 25.7949C72.3242 26.0723 72.2012 26.418 72.1426 26.832L72.166 26.8613C72.3965 26.6152 72.6855 26.4141 73.0332 26.2578C73.3848 26.1016 73.7578 26.0234 74.1523 26.0234C74.6914 26.0234 75.1562 26.1465 75.5469 26.3926C75.9375 26.6348 76.2383 26.9727 76.4492 27.4062C76.6602 27.8359 76.7656 28.332 76.7656 28.8945V29.0234C76.7656 29.6289 76.6504 30.166 76.4199 30.6348C76.1934 31.0996 75.8672 31.4648 75.4414 31.7305C75.0195 31.9922 74.5156 32.123 73.9297 32.123ZM73.9297 31.2207C74.2969 31.2207 74.6055 31.127 74.8555 30.9395C75.1055 30.748 75.293 30.4863 75.418 30.1543C75.5469 29.8223 75.6113 29.4453 75.6113 29.0234V28.8945C75.6113 28.5195 75.5469 28.1836 75.418 27.8867C75.2891 27.5898 75.0996 27.3555 74.8496 27.1836C74.5996 27.0117 74.2891 26.9258 73.918 26.9258C73.5508 26.9258 73.2422 27.0117 72.9922 27.1836C72.7461 27.3555 72.5605 27.5898 72.4355 27.8867C72.3105 28.1836 72.248 28.5195 72.248 28.8945V29.0234C72.248 29.4453 72.3105 29.8223 72.4355 30.1543C72.5605 30.4863 72.748 30.748 72.998 30.9395C73.248 31.127 73.5586 31.2207 73.9297 31.2207ZM86.4512 33.8809V32H77.6973V31.2617L78.6523 31.0977V26.5684L77.6973 26.4043V25.6602H78.6523H79.8066H80.7617V26.4043L79.8066 26.5684V31.0977H82.0332V25.6602H83.1875V31.0977H85.4199V26.5684L84.4648 26.4043V25.6602H87.5293V26.4043L86.5742 26.5684V31.0918H87.5938L87.4766 33.8809H86.4512ZM91.5723 32.123C90.9863 32.123 90.4766 31.9902 90.043 31.7246C89.6094 31.4551 89.2734 31.082 89.0352 30.6055C88.8008 30.1289 88.6836 29.5781 88.6836 28.9531V28.6953C88.6836 28.0938 88.8066 27.5566 89.0527 27.084C89.3027 26.6074 89.6328 26.2324 90.043 25.959C90.457 25.6816 90.9082 25.543 91.3965 25.543C91.9668 25.543 92.4434 25.6602 92.8262 25.8945C93.2129 26.1289 93.5039 26.459 93.6992 26.8848C93.8945 27.3066 93.9922 27.8047 93.9922 28.3789V29.0996H89.8789L89.8613 29.1289C89.8691 29.5352 89.9395 29.8965 90.0723 30.2129C90.209 30.5254 90.4043 30.7715 90.6582 30.9512C90.9121 31.1309 91.2168 31.2207 91.5723 31.2207C91.9629 31.2207 92.3047 31.166 92.5977 31.0566C92.8945 30.9434 93.1504 30.7891 93.3652 30.5938L93.8164 31.3438C93.5898 31.5625 93.2891 31.748 92.9141 31.9004C92.543 32.0488 92.0957 32.123 91.5723 32.123ZM89.9141 28.1973H92.8379V28.0449C92.8379 27.7402 92.7832 27.4688 92.6738 27.2305C92.5684 26.9883 92.4082 26.7988 92.1934 26.6621C91.9824 26.5215 91.7168 26.4512 91.3965 26.4512C91.1387 26.4512 90.9043 26.5273 90.6934 26.6797C90.4824 26.8281 90.3086 27.0312 90.1719 27.2891C90.0352 27.5469 89.9453 27.8398 89.9023 28.168L89.9141 28.1973ZM94.8828 32V31.2617L95.8379 31.0977V26.5684L94.8828 26.4043V25.6602H100.057V27.2949H99.3066L99.2246 26.5742H96.9922V31.0977L97.9473 31.2617V32H94.8828ZM103.83 32.123C103.244 32.123 102.738 31.9863 102.312 31.7129C101.891 31.4355 101.564 31.0547 101.334 30.5703C101.104 30.082 100.988 29.5254 100.988 28.9004V28.7715C100.988 28.1465 101.104 27.5918 101.334 27.1074C101.564 26.6191 101.891 26.2363 102.312 25.959C102.738 25.6816 103.24 25.543 103.818 25.543C104.404 25.543 104.908 25.6816 105.33 25.959C105.756 26.2363 106.084 26.6172 106.314 27.1016C106.545 27.5859 106.66 28.1426 106.66 28.7715V28.9004C106.66 29.5293 106.545 30.0879 106.314 30.5762C106.084 31.0605 105.758 31.4395 105.336 31.7129C104.914 31.9863 104.412 32.123 103.83 32.123ZM103.83 31.2207C104.197 31.2207 104.504 31.1211 104.75 30.9219C105 30.7188 105.188 30.4434 105.312 30.0957C105.441 29.7441 105.506 29.3457 105.506 28.9004V28.7715C105.506 28.3262 105.441 27.9297 105.312 27.582C105.188 27.2305 105 26.9551 104.75 26.7559C104.5 26.5527 104.189 26.4512 103.818 26.4512C103.451 26.4512 103.143 26.5527 102.893 26.7559C102.643 26.9551 102.455 27.2305 102.33 27.582C102.205 27.9297 102.143 28.3262 102.143 28.7715V28.9004C102.143 29.3457 102.205 29.7441 102.33 30.0957C102.455 30.4434 102.643 30.7188 102.893 30.9219C103.146 31.1211 103.459 31.2207 103.83 31.2207ZM114.213 32.123C113.662 32.123 113.168 32.0176 112.73 31.8066C112.293 31.5957 111.92 31.2988 111.611 30.916C111.307 30.5293 111.072 30.0723 110.908 29.5449C110.748 29.0176 110.668 28.4355 110.668 27.7988V27.6758C110.668 27.043 110.748 26.4629 110.908 25.9355C111.072 25.4043 111.307 24.9453 111.611 24.5586C111.92 24.1719 112.293 23.873 112.73 23.6621C113.168 23.4512 113.662 23.3457 114.213 23.3457C114.795 23.3457 115.307 23.4512 115.748 23.6621C116.189 23.873 116.559 24.1719 116.855 24.5586C117.156 24.9453 117.383 25.4043 117.535 25.9355C117.688 26.4629 117.764 27.043 117.764 27.6758V27.7988C117.764 28.4355 117.688 29.0176 117.535 29.5449C117.383 30.0723 117.156 30.5293 116.855 30.916C116.559 31.2988 116.189 31.5957 115.748 31.8066C115.307 32.0176 114.795 32.123 114.213 32.123ZM114.213 31.1621C114.779 31.1621 115.236 31.0215 115.584 30.7402C115.936 30.459 116.193 30.0664 116.357 29.5625C116.521 29.0547 116.604 28.4668 116.604 27.7988V27.6641C116.604 27 116.52 26.418 116.352 25.918C116.188 25.4141 115.93 25.0215 115.578 24.7402C115.227 24.4551 114.771 24.3125 114.213 24.3125C113.701 24.3125 113.268 24.4551 112.912 24.7402C112.557 25.0254 112.287 25.4199 112.104 25.9238C111.92 26.4238 111.828 27.0039 111.828 27.6641V27.7988C111.828 28.4629 111.92 29.0488 112.104 29.5566C112.287 30.0605 112.557 30.4551 112.912 30.7402C113.268 31.0215 113.701 31.1621 114.213 31.1621ZM122.188 32.123C121.605 32.123 121.102 31.9922 120.676 31.7305C120.25 31.4648 119.922 31.0996 119.691 30.6348C119.465 30.166 119.352 29.6289 119.352 29.0234V28.2031C119.352 27.3672 119.471 26.6465 119.709 26.041C119.947 25.4316 120.283 24.9414 120.717 24.5703C121.15 24.1992 121.66 23.9551 122.246 23.8379C122.738 23.748 123.094 23.6406 123.312 23.5156C123.535 23.3906 123.646 23.1855 123.646 22.9004H124.537L124.549 22.9355C124.557 23.2793 124.52 23.5586 124.438 23.7734C124.359 23.9883 124.234 24.1602 124.062 24.2891C123.891 24.418 123.672 24.5195 123.406 24.5938C123.141 24.668 122.826 24.7363 122.463 24.7988C122.107 24.8574 121.783 24.9688 121.49 25.1328C121.201 25.293 120.961 25.5137 120.77 25.7949C120.582 26.0723 120.459 26.418 120.4 26.832L120.424 26.8613C120.654 26.6152 120.943 26.4141 121.291 26.2578C121.643 26.1016 122.016 26.0234 122.41 26.0234C122.949 26.0234 123.414 26.1465 123.805 26.3926C124.195 26.6348 124.496 26.9727 124.707 27.4062C124.918 27.8359 125.023 28.332 125.023 28.8945V29.0234C125.023 29.6289 124.908 30.166 124.678 30.6348C124.451 31.0996 124.125 31.4648 123.699 31.7305C123.277 31.9922 122.773 32.123 122.188 32.123ZM122.188 31.2207C122.555 31.2207 122.863 31.127 123.113 30.9395C123.363 30.748 123.551 30.4863 123.676 30.1543C123.805 29.8223 123.869 29.4453 123.869 29.0234V28.8945C123.869 28.5195 123.805 28.1836 123.676 27.8867C123.547 27.5898 123.357 27.3555 123.107 27.1836C122.857 27.0117 122.547 26.9258 122.176 26.9258C121.809 26.9258 121.5 27.0117 121.25 27.1836C121.004 27.3555 120.818 27.5898 120.693 27.8867C120.568 28.1836 120.506 28.5195 120.506 28.8945V29.0234C120.506 29.4453 120.568 29.8223 120.693 30.1543C120.818 30.4863 121.006 30.748 121.256 30.9395C121.506 31.127 121.816 31.2207 122.188 31.2207ZM128.861 32.123C128.287 32.123 127.787 31.9902 127.361 31.7246C126.936 31.4551 126.605 31.082 126.371 30.6055C126.137 30.1289 126.02 29.5781 126.02 28.9531V28.707C126.02 28.1055 126.133 27.5664 126.359 27.0898C126.586 26.6133 126.912 26.2363 127.338 25.959C127.764 25.6816 128.271 25.543 128.861 25.543C129.373 25.543 129.82 25.627 130.203 25.7949C130.59 25.9629 130.914 26.1934 131.176 26.4863L131.205 28.0098H130.303L130.104 26.9023C129.971 26.7656 129.805 26.6562 129.605 26.5742C129.406 26.4922 129.172 26.4512 128.902 26.4512C128.559 26.4512 128.256 26.5527 127.994 26.7559C127.736 26.959 127.535 27.2305 127.391 27.5703C127.246 27.9102 127.174 28.2891 127.174 28.707V28.9531C127.174 29.4141 127.24 29.8145 127.373 30.1543C127.51 30.4941 127.703 30.7578 127.953 30.9453C128.207 31.1289 128.508 31.2207 128.855 31.2207C129.246 31.2207 129.57 31.1133 129.828 30.8984C130.086 30.6836 130.244 30.3887 130.303 30.0137H131.34L131.352 30.0488C131.332 30.4121 131.225 30.752 131.029 31.0684C130.834 31.3848 130.555 31.6406 130.191 31.8359C129.832 32.0273 129.389 32.123 128.861 32.123ZM132.225 32L132.242 31.0156L132.482 31.0098C132.76 31.0098 132.979 30.9238 133.139 30.752C133.299 30.5762 133.414 30.2949 133.484 29.9082C133.555 29.5176 133.59 29.0039 133.59 28.3672V26.5684L132.635 26.4043V25.6602H138.049H139.004V26.4043L138.049 26.5684V31.0977L139.004 31.2617V32H135.939V31.2617L136.895 31.0977V26.5742H134.744V28.3672C134.744 29.6172 134.578 30.5352 134.246 31.1211C133.918 31.707 133.354 32 132.553 32H132.225ZM141.342 34.5605C141.252 34.5605 141.135 34.5488 140.99 34.5254C140.846 34.5059 140.734 34.4863 140.656 34.4668L140.773 33.5586C140.84 33.5664 140.932 33.5723 141.049 33.5762C141.166 33.584 141.246 33.5879 141.289 33.5879C141.535 33.5879 141.734 33.4941 141.887 33.3066C142.043 33.1191 142.188 32.8633 142.32 32.5391L142.596 31.8711L140.352 26.498L139.672 26.4043V25.6602H142.332V26.4043L141.564 26.5215L142.801 29.6914L143.1 30.5176H143.135L144.6 26.5215L143.791 26.4043V25.6602H146.398V26.4043L145.742 26.498L143.246 32.9727C143.129 33.2773 142.986 33.5488 142.818 33.7871C142.654 34.0293 142.451 34.2188 142.209 34.3555C141.971 34.4922 141.682 34.5605 141.342 34.5605ZM146.744 32V31.2617L147.646 31.1328L149.293 28.6836L148.232 27.0898C148.119 26.9219 147.998 26.791 147.869 26.6973C147.744 26.6035 147.602 26.5566 147.441 26.5566C147.359 26.5566 147.307 26.5586 147.283 26.5625C147.26 26.5664 147.164 26.582 146.996 26.6094L146.832 25.8242C146.977 25.7305 147.107 25.6621 147.225 25.6191C147.342 25.5723 147.492 25.5488 147.676 25.5488C147.969 25.5488 148.236 25.6367 148.479 25.8125C148.725 25.9883 148.945 26.2383 149.141 26.5625L150.236 28.3379H150.934V26.5684L149.979 26.4043V25.6602H153.043V26.4043L152.088 26.5684V28.3379H152.844L153.939 26.5625C154.131 26.2383 154.348 25.9883 154.59 25.8125C154.836 25.6367 155.109 25.5488 155.41 25.5488C155.59 25.5488 155.738 25.5723 155.855 25.6191C155.977 25.666 156.107 25.7344 156.248 25.8242L156.09 26.6094C155.922 26.582 155.824 26.5664 155.797 26.5625C155.773 26.5586 155.723 26.5566 155.645 26.5566C155.48 26.5566 155.334 26.6035 155.205 26.6973C155.076 26.791 154.959 26.9219 154.854 27.0898L153.758 28.7305L155.381 31.1328L156.277 31.2617V32H154.508L152.861 29.3105H152.088V31.0977L153.043 31.2617V32H149.979V31.2617L150.934 31.0977V29.3105H150.154L148.514 32H146.744ZM157.209 32V31.2617L158.164 31.0977V26.5684L157.209 26.4043V25.6602H159.312H160.268V26.4043L159.312 26.5684V30.1484L159.348 30.1602L162.143 25.6602H163.297H164.252V26.4043L163.297 26.5684V31.0977L164.252 31.2617V32H161.188V31.2617L162.143 31.0977V27.5117L162.107 27.5L159.312 32H157.209ZM165.389 32V31.2617L166.344 31.0977V26.5684L165.389 26.4043V25.6602H166.344H168.84C169.676 25.6602 170.324 25.8066 170.785 26.0996C171.246 26.3887 171.477 26.8242 171.477 27.4062C171.477 27.7031 171.387 27.9688 171.207 28.2031C171.027 28.4336 170.773 28.6094 170.445 28.7305C170.84 28.8281 171.148 29.0117 171.371 29.2812C171.594 29.5469 171.705 29.8516 171.705 30.1953C171.705 30.7891 171.488 31.2383 171.055 31.543C170.625 31.8477 170.021 32 169.244 32H165.389ZM167.498 31.1094H169.244C169.674 31.1094 169.998 31.0293 170.217 30.8691C170.436 30.7051 170.545 30.4707 170.545 30.166C170.545 29.8652 170.436 29.6328 170.217 29.4688C169.998 29.3047 169.674 29.2227 169.244 29.2227H167.498V31.1094ZM167.498 28.3379H168.846C169.334 28.3379 169.701 28.2656 169.947 28.1211C170.197 27.9766 170.322 27.7578 170.322 27.4648C170.322 26.8594 169.828 26.5566 168.84 26.5566H167.498V28.3379ZM174.758 32.123C174.098 32.123 173.596 31.9629 173.252 31.6426C172.908 31.3184 172.736 30.8633 172.736 30.2773C172.736 29.6758 172.982 29.1934 173.475 28.8301C173.967 28.4629 174.65 28.2793 175.525 28.2793H176.656V27.6582C176.656 27.2754 176.539 26.9785 176.305 26.7676C176.074 26.5566 175.748 26.4512 175.326 26.4512C175.061 26.4512 174.83 26.4844 174.635 26.5508C174.439 26.6133 174.262 26.7012 174.102 26.8145L173.979 27.6992H173.088V26.2461C173.373 26.0156 173.705 25.8418 174.084 25.7246C174.463 25.6035 174.883 25.543 175.344 25.543C176.113 25.543 176.717 25.7266 177.154 26.0938C177.592 26.4609 177.811 26.9863 177.811 27.6699V30.7227C177.811 30.8047 177.811 30.8848 177.811 30.9629C177.814 31.041 177.82 31.1191 177.828 31.1973L178.443 31.2617V32H176.785C176.75 31.8281 176.723 31.6738 176.703 31.5371C176.684 31.4004 176.67 31.2637 176.662 31.127C176.439 31.4121 176.16 31.6504 175.824 31.8418C175.492 32.0293 175.137 32.123 174.758 32.123ZM174.928 31.1562C175.311 31.1562 175.66 31.0645 175.977 30.8809C176.293 30.6973 176.52 30.4766 176.656 30.2188V29.0703H175.484C174.953 29.0703 174.555 29.1973 174.289 29.4512C174.023 29.7051 173.891 29.9883 173.891 30.3008C173.891 30.5781 173.977 30.791 174.148 30.9395C174.32 31.084 174.58 31.1562 174.928 31.1562ZM179.475 32V31.2617L180.43 31.0977V26.5684L179.475 26.4043V25.6602H182.539V26.4043L181.584 26.5684V28.4023H184.402V26.5684L183.447 26.4043V25.6602H184.402H185.562H186.518V26.4043L185.562 26.5684V31.0977L186.518 31.2617V32H183.447V31.2617L184.402 31.0977V29.3047H181.584V31.0977L182.539 31.2617V32H179.475ZM187.654 32V31.2617L188.609 31.0977V26.5684L187.654 26.4043V25.6602H189.758H190.713V26.4043L189.758 26.5684V30.1484L189.793 30.1602L192.588 25.6602H193.742H194.697V26.4043L193.742 26.5684V31.0977L194.697 31.2617V32H191.633V31.2617L192.588 31.0977V27.5117L192.553 27.5L189.758 32H187.654ZM195.646 32V31.2617L196.479 31.1387L197.562 29.3691C197.16 29.2246 196.85 28.9961 196.631 28.6836C196.416 28.3711 196.309 28.0098 196.309 27.5996C196.309 27.2168 196.406 26.8809 196.602 26.5918C196.797 26.2988 197.076 26.0703 197.439 25.9062C197.807 25.7422 198.24 25.6602 198.74 25.6602H202.373V26.4043L201.418 26.5684V31.0977L202.373 31.2617V32H199.309V31.2617L200.264 31.0977V29.5391H198.699L197.199 32H195.646ZM198.623 28.6309H200.264V26.5566H198.74C198.322 26.5566 198.006 26.6621 197.791 26.873C197.576 27.0801 197.469 27.3262 197.469 27.6113C197.469 27.8926 197.564 28.1328 197.756 28.332C197.951 28.5312 198.24 28.6309 198.623 28.6309ZM62.4746 50V49.2617L63.4297 49.0977V42.377L62.4746 42.2129V41.4688H63.4297H66.3945C67.0039 41.4688 67.5234 41.5762 67.9531 41.791C68.3828 42.002 68.7109 42.2988 68.9375 42.6816C69.1641 43.0645 69.2773 43.5117 69.2773 44.0234C69.2773 44.5391 69.1641 44.9883 68.9375 45.3711C68.7109 45.7539 68.3828 46.0508 67.9531 46.2617C67.5234 46.4727 67.0039 46.5781 66.3945 46.5781H64.584V49.0977L65.5391 49.2617V50H62.4746ZM64.584 45.6758H66.3945C66.9727 45.6758 67.4043 45.5215 67.6895 45.2129C67.9785 44.9004 68.123 44.5078 68.123 44.0352C68.123 43.5625 67.9785 43.168 67.6895 42.8516C67.4043 42.5352 66.9727 42.377 66.3945 42.377H64.584V45.6758ZM71.5332 52.5605C71.4434 52.5605 71.3262 52.5488 71.1816 52.5254C71.0371 52.5059 70.9258 52.4863 70.8477 52.4668L70.9648 51.5586C71.0312 51.5664 71.123 51.5723 71.2402 51.5762C71.3574 51.584 71.4375 51.5879 71.4805 51.5879C71.7266 51.5879 71.9258 51.4941 72.0781 51.3066C72.2344 51.1191 72.3789 50.8633 72.5117 50.5391L72.7871 49.8711L70.543 44.498L69.8633 44.4043V43.6602H72.5234V44.4043L71.7559 44.5215L72.9922 47.6914L73.291 48.5176H73.3262L74.791 44.5215L73.9824 44.4043V43.6602H76.5898V44.4043L75.9336 44.498L73.4375 50.9727C73.3203 51.2773 73.1777 51.5488 73.0098 51.7871C72.8457 52.0293 72.6426 52.2188 72.4004 52.3555C72.1621 52.4922 71.873 52.5605 71.5332 52.5605ZM79.7246 50.123C79.1504 50.123 78.6504 49.9902 78.2246 49.7246C77.7988 49.4551 77.4688 49.082 77.2344 48.6055C77 48.1289 76.8828 47.5781 76.8828 46.9531V46.707C76.8828 46.1055 76.9961 45.5664 77.2227 45.0898C77.4492 44.6133 77.7754 44.2363 78.2012 43.959C78.627 43.6816 79.1348 43.543 79.7246 43.543C80.2363 43.543 80.6836 43.627 81.0664 43.7949C81.4531 43.9629 81.7773 44.1934 82.0391 44.4863L82.0684 46.0098H81.166L80.9668 44.9023C80.834 44.7656 80.668 44.6562 80.4688 44.5742C80.2695 44.4922 80.0352 44.4512 79.7656 44.4512C79.4219 44.4512 79.1191 44.5527 78.8574 44.7559C78.5996 44.959 78.3984 45.2305 78.2539 45.5703C78.1094 45.9102 78.0371 46.2891 78.0371 46.707V46.9531C78.0371 47.4141 78.1035 47.8145 78.2363 48.1543C78.373 48.4941 78.5664 48.7578 78.8164 48.9453C79.0703 49.1289 79.3711 49.2207 79.7188 49.2207C80.1094 49.2207 80.4336 49.1133 80.6914 48.8984C80.9492 48.6836 81.1074 48.3887 81.166 48.0137H82.2031L82.2148 48.0488C82.1953 48.4121 82.0879 48.752 81.8926 49.0684C81.6973 49.3848 81.418 49.6406 81.0547 49.8359C80.6953 50.0273 80.252 50.123 79.7246 50.123ZM86.2168 50.123C85.6426 50.123 85.1426 49.9902 84.7168 49.7246C84.291 49.4551 83.9609 49.082 83.7266 48.6055C83.4922 48.1289 83.375 47.5781 83.375 46.9531V46.707C83.375 46.1055 83.4883 45.5664 83.7148 45.0898C83.9414 44.6133 84.2676 44.2363 84.6934 43.959C85.1191 43.6816 85.627 43.543 86.2168 43.543C86.7285 43.543 87.1758 43.627 87.5586 43.7949C87.9453 43.9629 88.2695 44.1934 88.5312 44.4863L88.5605 46.0098H87.6582L87.459 44.9023C87.3262 44.7656 87.1602 44.6562 86.9609 44.5742C86.7617 44.4922 86.5273 44.4512 86.2578 44.4512C85.9141 44.4512 85.6113 44.5527 85.3496 44.7559C85.0918 44.959 84.8906 45.2305 84.7461 45.5703C84.6016 45.9102 84.5293 46.2891 84.5293 46.707V46.9531C84.5293 47.4141 84.5957 47.8145 84.7285 48.1543C84.8652 48.4941 85.0586 48.7578 85.3086 48.9453C85.5625 49.1289 85.8633 49.2207 86.2109 49.2207C86.6016 49.2207 86.9258 49.1133 87.1836 48.8984C87.4414 48.6836 87.5996 48.3887 87.6582 48.0137H88.6953L88.707 48.0488C88.6875 48.4121 88.5801 48.752 88.3848 49.0684C88.1895 49.3848 87.9102 49.6406 87.5469 49.8359C87.1875 50.0273 86.7441 50.123 86.2168 50.123ZM89.7441 50V49.2617L90.6992 49.0977V44.5684L89.7441 44.4043V43.6602H92.8086V44.4043L91.8535 44.5684V46.3379H92.4629L93.7871 44.5625C94.0254 44.2305 94.2578 43.9785 94.4844 43.8066C94.7148 43.6348 94.9727 43.5488 95.2578 43.5488C95.4375 43.5488 95.5859 43.5723 95.7031 43.6191C95.8203 43.6621 95.9531 43.7305 96.1016 43.8242L95.9375 44.6094C95.7695 44.582 95.6719 44.5664 95.6445 44.5625C95.6211 44.5586 95.5703 44.5566 95.4922 44.5566C95.3477 44.5566 95.2051 44.6094 95.0645 44.7148C94.9277 44.8203 94.8066 44.9453 94.7012 45.0898L93.4766 46.6777L95.4746 49.1152L96.2891 49.2617V50H94.748L92.6035 47.3105H91.8535V49.0977L92.8086 49.2617V50H89.7441ZM99.5762 50.123C98.9902 50.123 98.4844 49.9863 98.0586 49.7129C97.6367 49.4355 97.3105 49.0547 97.0801 48.5703C96.8496 48.082 96.7344 47.5254 96.7344 46.9004V46.7715C96.7344 46.1465 96.8496 45.5918 97.0801 45.1074C97.3105 44.6191 97.6367 44.2363 98.0586 43.959C98.4844 43.6816 98.9863 43.543 99.5645 43.543C100.15 43.543 100.654 43.6816 101.076 43.959C101.502 44.2363 101.83 44.6172 102.061 45.1016C102.291 45.5859 102.406 46.1426 102.406 46.7715V46.9004C102.406 47.5293 102.291 48.0879 102.061 48.5762C101.83 49.0605 101.504 49.4395 101.082 49.7129C100.66 49.9863 100.158 50.123 99.5762 50.123ZM99.5762 49.2207C99.9434 49.2207 100.25 49.1211 100.496 48.9219C100.746 48.7188 100.934 48.4434 101.059 48.0957C101.188 47.7441 101.252 47.3457 101.252 46.9004V46.7715C101.252 46.3262 101.188 45.9297 101.059 45.582C100.934 45.2305 100.746 44.9551 100.496 44.7559C100.246 44.5527 99.9355 44.4512 99.5645 44.4512C99.1973 44.4512 98.8887 44.5527 98.6387 44.7559C98.3887 44.9551 98.2012 45.2305 98.0762 45.582C97.9512 45.9297 97.8887 46.3262 97.8887 46.7715V46.9004C97.8887 47.3457 97.9512 47.7441 98.0762 48.0957C98.2012 48.4434 98.3887 48.7188 98.6387 48.9219C98.8926 49.1211 99.2051 49.2207 99.5762 49.2207ZM103.396 50V49.2617L104.229 49.1387L105.312 47.3691C104.91 47.2246 104.6 46.9961 104.381 46.6836C104.166 46.3711 104.059 46.0098 104.059 45.5996C104.059 45.2168 104.156 44.8809 104.352 44.5918C104.547 44.2988 104.826 44.0703 105.189 43.9062C105.557 43.7422 105.99 43.6602 106.49 43.6602H110.123V44.4043L109.168 44.5684V49.0977L110.123 49.2617V50H107.059V49.2617L108.014 49.0977V47.5391H106.449L104.949 50H103.396ZM106.373 46.6309H108.014V44.5566H106.49C106.072 44.5566 105.756 44.6621 105.541 44.873C105.326 45.0801 105.219 45.3262 105.219 45.6113C105.219 45.8926 105.314 46.1328 105.506 46.332C105.701 46.5312 105.99 46.6309 106.373 46.6309ZM113.656 50.1113C113.195 50.1113 112.773 50.0371 112.391 49.8887C112.008 49.7402 111.705 49.5215 111.482 49.2324C111.26 48.9395 111.154 48.582 111.166 48.1602L111.178 48.125H112.273C112.273 48.3203 112.332 48.502 112.449 48.6699C112.566 48.8379 112.729 48.9727 112.936 49.0742C113.146 49.1758 113.387 49.2266 113.656 49.2266C114.074 49.2266 114.398 49.1309 114.629 48.9395C114.859 48.7441 114.975 48.502 114.975 48.2129C114.975 47.873 114.873 47.625 114.67 47.4688C114.471 47.3125 114.158 47.2344 113.732 47.2344H112.631V46.2969H113.732C114.139 46.2969 114.428 46.2207 114.6 46.0684C114.775 45.9121 114.863 45.6875 114.863 45.3945C114.863 45.1289 114.764 44.9043 114.564 44.7207C114.365 44.5371 114.062 44.4453 113.656 44.4453C113.414 44.4453 113.195 44.4902 113 44.5801C112.809 44.666 112.656 44.7832 112.543 44.9316C112.43 45.0801 112.373 45.2461 112.373 45.4297H111.277L111.266 45.3945C111.25 45.0312 111.346 44.7129 111.553 44.4395C111.764 44.1621 112.053 43.9453 112.42 43.7891C112.787 43.6328 113.199 43.5547 113.656 43.5547C114.398 43.5547 114.979 43.7148 115.396 44.0352C115.814 44.3516 116.023 44.8047 116.023 45.3945C116.023 45.6797 115.938 45.9414 115.766 46.1797C115.594 46.418 115.354 46.6055 115.045 46.7422C115.775 47 116.141 47.4902 116.141 48.2129C116.141 48.6074 116.037 48.9473 115.83 49.2324C115.623 49.5176 115.334 49.7363 114.963 49.8887C114.592 50.0371 114.156 50.1113 113.656 50.1113ZM117.354 50V49.2617L118.309 49.0977V44.5684L117.354 44.4043V43.6602H120.418V44.4043L119.463 44.5684V45.8398H121.033C121.783 45.8398 122.367 46.0312 122.785 46.4141C123.203 46.793 123.412 47.2871 123.412 47.8965C123.412 48.5098 123.201 49.0137 122.779 49.4082C122.361 49.8027 121.779 50 121.033 50H117.354ZM119.463 49.0977H121.033C121.451 49.0977 121.758 48.9883 121.953 48.7695C122.152 48.5469 122.252 48.2695 122.252 47.9375C122.252 47.6172 122.152 47.3379 121.953 47.0996C121.754 46.8613 121.447 46.7422 121.033 46.7422H119.463V49.0977ZM123.541 50V49.2617L124.496 49.0977V44.5684L123.541 44.4043V43.6602H125.65V49.0977L126.605 49.2617V50H123.541ZM131.199 50V49.2617L132.154 49.0977V47.7383C131.928 47.7969 131.697 47.8398 131.463 47.8672C131.229 47.8945 130.98 47.9082 130.719 47.9082C130.211 47.9082 129.773 47.8184 129.406 47.6387C129.039 47.459 128.758 47.1914 128.562 46.8359C128.367 46.4805 128.27 46.041 128.27 45.5176V44.5566L127.314 44.3926V43.6543H129.424H130.379V44.3926L129.424 44.5566V45.5176C129.424 45.8535 129.471 46.1309 129.564 46.3496C129.662 46.5684 129.807 46.7305 129.998 46.8359C130.193 46.9414 130.434 46.9941 130.719 46.9941C130.977 46.9941 131.223 46.9805 131.457 46.9531C131.691 46.9219 131.924 46.877 132.154 46.8184V44.5684L131.199 44.4043V43.6602H134.264V44.4043L133.309 44.5684V49.0977L134.264 49.2617V50H131.199ZM135.447 50V49.2617L136.402 49.0977V44.5684L135.447 44.4043V43.6602H138.512V44.4043L137.557 44.5684V46.4023H140.375V44.5684L139.42 44.4043V43.6602H140.375H141.535H142.49V44.4043L141.535 44.5684V49.0977L142.49 49.2617V50H139.42V49.2617L140.375 49.0977V47.3047H137.557V49.0977L138.512 49.2617V50H135.447ZM143.627 50V49.2617L144.582 49.0977V44.5684L143.627 44.4043V43.6602H146.691V44.4043L145.736 44.5684V45.8398H147.307C148.057 45.8398 148.641 46.0312 149.059 46.4141C149.477 46.793 149.686 47.2871 149.686 47.8965C149.686 48.5098 149.475 49.0137 149.053 49.4082C148.635 49.8027 148.053 50 147.307 50H143.627ZM145.736 49.0977H147.307C147.725 49.0977 148.031 48.9883 148.227 48.7695C148.426 48.5469 148.525 48.2695 148.525 47.9375C148.525 47.6172 148.426 47.3379 148.227 47.0996C148.027 46.8613 147.721 46.7422 147.307 46.7422H145.736V49.0977ZM149.814 50V49.2617L150.77 49.0977V44.5684L149.814 44.4043V43.6602H151.924V49.0977L152.879 49.2617V50H149.814ZM153.453 50V49.2617L154.156 49.127L156.049 46.7949L154.197 44.5391L153.57 44.4043V43.6602H156.055V44.4043L155.422 44.4746L156.723 46.0918L157.988 44.4688L157.309 44.4043V43.6602H159.752V44.4043L159.107 44.5391L157.391 46.7773L159.365 49.127L160.021 49.2617V50H157.332V49.2617L158.094 49.1973L156.705 47.5039L155.357 49.1973L156.043 49.2617V50H153.453ZM163.66 50V49.2617L164.293 49.1738L167.275 41.4688H168.266L171.195 49.1738L171.822 49.2617V50H169.373V49.2617L170.018 49.1504L169.455 47.5801H166.039L165.459 49.1504L166.104 49.2617V50H163.66ZM166.396 46.6133H169.104L167.85 43.1445L167.779 42.9512H167.744L167.674 43.1445L166.396 46.6133ZM172.648 50V49.2617L173.281 49.1738L176.264 41.4688H177.254L180.184 49.1738L180.811 49.2617V50H178.361V49.2617L179.006 49.1504L178.443 47.5801H175.027L174.447 49.1504L175.092 49.2617V50H172.648ZM175.385 46.6133H178.092L176.838 43.1445L176.768 42.9512H176.732L176.662 43.1445L175.385 46.6133Z" fill="white"/>
</svg>
