<svg width="18" height="18" viewBox="0 0 18 18" fill="none" xmlns="http://www.w3.org/2000/svg">
<path d="M7.53 15.06C6.04071 15.06 4.58486 14.6184 3.34656 13.791C2.10826 12.9636 1.14312 11.7875 0.57319 10.4116C0.00326258 9.03568 -0.145856 7.52165 0.14469 6.06097C0.435237 4.6003 1.1524 3.25858 2.20549 2.20549C3.25858 1.1524 4.6003 0.435237 6.06097 0.14469C7.52165 -0.145856 9.03568 0.00326258 10.4116 0.57319C11.7875 1.14312 12.9636 2.10826 13.791 3.34656C14.6184 4.58486 15.06 6.04071 15.06 7.53C15.06 8.51886 14.8652 9.49803 14.4868 10.4116C14.1084 11.3252 13.5537 12.1553 12.8545 12.8545C12.1553 13.5537 11.3252 14.1084 10.4116 14.4868C9.49803 14.8652 8.51886 15.06 7.53 15.06ZM7.53 1.51C6.34332 1.51 5.18328 1.8619 4.19658 2.52119C3.20989 3.18047 2.44085 4.11755 1.98673 5.2139C1.5326 6.31026 1.41378 7.51666 1.64529 8.68054C1.8768 9.84443 2.44825 10.9135 3.28736 11.7526C4.12648 12.5918 5.19557 13.1632 6.35946 13.3947C7.52335 13.6262 8.72975 13.5074 9.8261 13.0533C10.9225 12.5992 11.8595 11.8301 12.5188 10.8434C13.1781 9.85673 13.53 8.69669 13.53 7.51C13.53 5.9187 12.8979 4.39258 11.7726 3.26736C10.6474 2.14214 9.1213 1.51 7.53 1.51Z" fill="#222222"/>
<path d="M16.76 17.51C16.6614 17.5104 16.5638 17.4912 16.4728 17.4534C16.3818 17.4157 16.2992 17.3601 16.23 17.29L12.1 13.16C11.9675 13.0178 11.8954 12.8298 11.8988 12.6355C11.9022 12.4411 11.9809 12.2558 12.1184 12.1184C12.2558 11.9809 12.4411 11.9022 12.6355 11.8988C12.8298 11.8954 13.0178 11.9675 13.16 12.1L17.29 16.23C17.4304 16.3706 17.5093 16.5612 17.5093 16.76C17.5093 16.9587 17.4304 17.1493 17.29 17.29C17.2207 17.3601 17.1382 17.4157 17.0472 17.4534C16.9562 17.4912 16.8585 17.5104 16.76 17.51Z" fill="#222222"/>
</svg>
