<svg width="24" height="24" viewBox="0 0 24 24" fill="none" xmlns="http://www.w3.org/2000/svg">
<g clip-path="url(#clip0_283_464)">
<path d="M12 0.5C5.652 0.5 0.5 5.652 0.5 12C0.5 18.348 5.652 23.5 12 23.5C18.348 23.5 23.5 18.348 23.5 12C23.5 5.652 18.348 0.5 12 0.5ZM17.336 8.32C17.1635 10.137 16.416 14.553 16.0365 16.5885C15.8755 17.451 15.5535 17.7385 15.2545 17.773C14.5875 17.8305 14.0815 17.336 13.4375 16.9105C12.4255 16.2435 11.8505 15.8295 10.873 15.1855C9.7345 14.438 10.4705 14.024 11.126 13.357C11.2985 13.1845 14.2425 10.505 14.3 10.2635C14.308 10.2269 14.3069 10.1889 14.2969 10.1529C14.2869 10.1168 14.2682 10.0837 14.2425 10.0565C14.1735 9.999 14.0815 10.022 14.001 10.0335C13.8975 10.0565 12.2875 11.126 9.148 13.242C8.688 13.5525 8.274 13.7135 7.906 13.702C7.492 13.6905 6.71 13.472 6.1235 13.2765C5.399 13.0465 4.8355 12.92 4.8815 12.5175C4.9045 12.3105 5.192 12.1035 5.7325 11.885C9.0905 10.4245 11.3215 9.4585 12.437 8.9985C15.634 7.6645 16.2895 7.4345 16.7265 7.4345C16.8185 7.4345 17.037 7.4575 17.175 7.5725C17.29 7.6645 17.3245 7.791 17.336 7.883C17.3245 7.952 17.3475 8.159 17.336 8.32Z" fill="white"/>
</g>
<defs>
<clipPath id="clip0_283_464">
<rect width="24" height="24" fill="white"/>
</clipPath>
</defs>
</svg>
